<?xml version="1.0" standalone="no"?>
<!DOCTYPE svg PUBLIC "-//W3C//DTD SVG 20010904//EN"
 "http://www.w3.org/TR/2001/REC-SVG-20010904/DTD/svg10.dtd">
<svg version="1.0" xmlns="http://www.w3.org/2000/svg"
 width="939.000000pt" height="939.000000pt" viewBox="0 0 939.000000 939.000000"
 preserveAspectRatio="xMidYMid meet">
<metadata>
Created by potrace 1.11, written by Peter Selinger 2001-2013
</metadata>
<g transform="translate(0.000000,939.000000) scale(0.100000,-0.100000)"
fill="#000000" stroke="none">
<path d="M965 9349 c-33 -10 -69 -26 -79 -34 -21 -16 -21 -20 20 -167 l18 -68
-36 -37 c-44 -46 -58 -73 -58 -109 0 -15 -9 -38 -21 -50 -13 -14 -21 -36 -22
-61 0 -21 -9 -50 -19 -65 -43 -62 -61 -172 -38 -232 8 -23 1 -37 -60 -124
-224 -317 -288 -667 -194 -1053 l27 -107 -25 -33 c-41 -56 -48 -90 -37 -182
15 -124 24 -146 73 -168 22 -10 55 -19 71 -19 28 0 35 -8 81 -92 28 -51 107
-192 175 -313 67 -121 153 -274 190 -340 37 -66 65 -122 63 -124 -2 -3 -18 9
-35 25 -16 16 -62 43 -102 59 -65 28 -71 33 -72 60 0 27 -5 32 -55 48 -84 28
-197 33 -271 13 -69 -20 -83 -16 -43 11 42 28 84 70 84 84 0 12 -49 8 -122
-12 -53 -14 -146 -93 -168 -143 l-19 -41 0 31 c-1 43 -26 51 -48 17 -27 -41
-30 -148 -5 -209 11 -27 23 -65 26 -84 4 -19 27 -66 52 -104 41 -62 44 -68 23
-62 -63 20 -69 19 -69 -4 0 -12 14 -41 31 -66 25 -36 48 -54 128 -93 61 -31
122 -54 162 -60 35 -7 75 -14 89 -17 24 -6 24 -7 -10 -19 -19 -6 -36 -18 -38
-26 -3 -19 97 -62 183 -79 85 -16 223 -59 270 -82 63 -32 155 -90 155 -98 0
-12 -76 -77 -99 -85 -12 -3 -21 -11 -21 -16 0 -6 -7 -6 -19 1 -31 16 -45 4
-67 -63 -17 -47 -21 -76 -17 -121 6 -57 5 -58 -16 -46 -32 17 -54 -4 -48 -44
3 -17 10 -61 15 -97 5 -36 19 -87 31 -114 26 -59 26 -65 1 -65 -29 0 -26 -39
8 -76 15 -17 52 -43 82 -59 80 -41 156 -94 232 -165 60 -54 75 -63 128 -73 54
-11 60 -14 60 -37 0 -14 7 -46 14 -72 l15 -47 -32 19 c-46 28 -50 26 -44 -27
5 -39 1 -57 -21 -99 -24 -49 -25 -54 -12 -93 12 -38 11 -44 -11 -86 l-24 -46
24 -20 24 -20 -36 -77 c-20 -42 -39 -90 -42 -107 -4 -16 -13 -57 -21 -90 -15
-59 -15 -61 12 -115 14 -30 33 -63 42 -72 14 -17 17 -17 50 4 l34 21 -8 -64
c-12 -88 -8 -158 15 -296 11 -65 22 -131 23 -148 3 -27 7 -30 38 -31 19 0 45
-4 57 -8 19 -6 23 -4 23 14 0 35 84 154 123 175 29 15 43 17 78 9 l44 -10 -2
-59 c-3 -57 -5 -62 -47 -100 l-44 -40 14 -80 c8 -44 24 -126 36 -183 18 -89
20 -122 15 -246 l-7 -143 38 -43 38 -43 45 24 44 24 20 -50 21 -50 70 2 71 3
9 -32 c7 -22 17 -34 34 -38 45 -10 244 -279 360 -488 33 -58 55 -85 83 -101
20 -12 37 -26 37 -31 0 -6 11 -10 24 -10 14 0 28 -4 31 -10 12 -19 44 -11 49
13 5 22 36 306 36 326 0 23 48 9 108 -30 72 -47 248 -235 353 -375 42 -57 76
-93 91 -97 12 -3 38 -11 56 -18 31 -13 34 -12 57 16 13 17 24 35 25 41 0 25
146 167 224 218 80 53 180 107 224 120 19 7 22 4 22 -23 0 -21 5 -31 15 -31
16 0 28 36 23 71 -4 32 36 41 157 34 81 -6 113 -12 165 -36 63 -29 67 -33 110
-112 45 -83 62 -132 75 -222 7 -46 8 -48 17 -25 21 53 -1 150 -60 273 -2 4 0
7 5 7 5 0 25 -22 46 -48 65 -86 148 -378 133 -473 -5 -35 -19 -60 -57 -105
-27 -32 -52 -70 -55 -84 -3 -14 -12 -39 -20 -56 -8 -18 -11 -45 -8 -61 5 -24
1 -31 -20 -43 -28 -14 -31 -23 -40 -104 -4 -27 -22 -79 -44 -122 -40 -75 -39
-88 8 -72 20 7 31 24 53 86 14 42 30 97 33 122 5 33 15 52 38 71 23 20 31 35
31 60 0 28 10 41 72 93 113 96 117 103 114 206 -1 54 2 91 8 95 6 3 11 24 11
45 0 46 32 132 64 175 13 17 58 48 102 69 65 33 93 41 159 46 44 3 94 3 110
-1 21 -5 24 -7 9 -8 -25 -1 -117 -96 -161 -166 -34 -53 -53 -125 -34 -125 6 0
18 15 26 33 47 100 128 196 184 218 15 6 21 14 17 25 -7 17 -3 16 45 -7 l26
-13 -39 -50 c-48 -64 -70 -110 -62 -130 9 -24 17 -20 41 23 12 21 38 58 57 84
19 25 31 48 28 52 -4 4 3 3 15 -4 12 -6 43 -36 70 -67 26 -31 65 -73 85 -94
38 -38 149 -204 185 -275 25 -48 43 -130 43 -191 0 -39 3 -46 26 -54 14 -6 43
-10 64 -10 31 0 42 5 51 23 6 12 34 45 60 74 27 28 49 55 49 60 0 4 -9 42 -20
83 -29 112 -29 115 21 88 23 -13 53 -29 68 -37 51 -27 53 -58 3 -53 -18 2 -32
0 -32 -5 0 -18 19 -33 85 -69 83 -45 344 -250 363 -285 7 -13 25 -30 39 -36
23 -11 30 -10 48 7 12 11 26 20 32 20 24 0 64 65 88 143 49 154 67 249 74 394
3 78 9 143 11 145 3 2 66 1 140 -3 109 -6 159 -14 260 -42 145 -41 220 -66
278 -96 23 -12 48 -21 57 -21 22 0 55 37 55 63 0 12 11 44 26 70 14 27 38 90
54 140 16 51 40 126 54 167 13 41 32 102 42 135 10 32 30 73 45 89 24 27 29
29 53 18 29 -13 38 -49 9 -38 -9 4 16 -27 54 -68 39 -41 74 -83 78 -95 7 -25
29 -27 76 -7 39 16 64 48 109 135 40 80 60 185 60 314 l0 102 29 13 c18 8 37
30 52 60 13 26 25 49 26 51 1 2 43 -31 93 -72 84 -70 93 -75 118 -66 54 20 69
45 82 132 6 45 20 127 31 182 17 87 19 120 11 255 -5 103 -4 157 2 162 6 4 31
-16 57 -45 l46 -52 42 41 c40 40 41 44 41 108 0 37 5 87 11 112 9 35 9 55 0
86 -13 41 -9 49 23 61 14 5 -23 165 -60 262 -85 218 -157 352 -220 413 -52 48
-89 122 -105 208 -15 76 -34 93 -94 87 -34 -4 -45 -2 -45 8 0 13 22 30 154
118 29 19 82 42 121 52 63 15 96 30 195 85 17 10 57 14 130 14 58 -1 110 -1
116 -1 12 1 34 44 34 66 0 23 -41 76 -100 131 -84 77 -109 91 -211 118 -52 14
-136 40 -187 58 l-93 32 47 24 c49 25 77 53 104 104 19 34 196 128 242 128 31
0 30 -3 32 64 2 58 -8 67 -108 92 -38 9 -112 39 -165 66 -70 36 -112 51 -153
55 -57 6 -70 14 -45 30 7 4 23 23 36 40 17 25 30 33 53 33 17 0 54 13 83 30
28 16 85 37 125 45 41 9 76 17 78 20 2 2 1 21 -3 42 -5 21 -9 46 -10 56 -1 10
-33 50 -71 88 -56 57 -88 79 -169 119 -55 26 -136 60 -180 76 -95 32 -91 30
-77 47 9 11 9 76 0 81 -55 28 -82 36 -88 25 -4 -6 -13 -9 -19 -5 -6 4 -3 14 9
26 11 11 20 30 20 43 0 38 -45 120 -91 165 -45 45 -73 104 -63 135 3 9 -4 30
-16 46 l-21 30 63 42 c74 49 88 64 88 97 0 13 9 37 21 53 12 17 24 57 30 97 5
37 21 93 35 125 14 31 24 67 22 79 -4 28 -41 48 -91 48 -54 0 -111 33 -176
101 -54 58 -58 60 -101 58 -25 -2 -57 3 -72 11 -23 11 -32 10 -68 -8 l-41 -20
-19 38 c-17 34 -81 100 -98 100 -4 0 -15 7 -25 14 -17 13 -17 15 2 47 27 44
26 55 -4 84 -22 23 -32 25 -118 25 -92 0 -96 1 -135 33 -22 17 -46 45 -53 60
-8 18 -29 37 -58 50 l-46 22 -5 76 c-7 103 -16 113 -96 104 -61 -6 -63 -6 -77
22 -20 38 -57 70 -89 78 -23 6 -34 1 -64 -29 l-36 -36 -60 31 c-52 26 -67 29
-111 24 -35 -4 -69 -1 -102 9 -67 21 -98 20 -119 -3 -16 -18 -20 -18 -51 -5
-42 17 -101 18 -111 2 -4 -7 -10 -27 -13 -44 l-6 -32 -70 29 c-85 34 -152 37
-188 9 -31 -25 -33 -25 -97 2 l-53 22 -62 -22 c-49 -18 -68 -21 -89 -12 -44
16 -63 12 -102 -22 -35 -31 -37 -32 -63 -15 -68 44 -112 59 -141 49 -18 -7
-31 -7 -37 -1 -6 6 -33 16 -62 24 -28 7 -67 23 -87 34 -76 45 -119 15 -175
-120 -28 -67 -41 -86 -71 -106 -21 -13 -38 -28 -38 -33 0 -5 -13 -16 -28 -24
-16 -8 -36 -32 -47 -55 -10 -23 -22 -41 -28 -41 -5 0 -35 23 -66 52 -59 54
-154 105 -214 115 -51 8 -95 -25 -95 -70 0 -18 -5 -52 -12 -76 -10 -37 -14
-42 -33 -37 -81 23 -155 29 -187 16 -29 -12 -32 -16 -27 -46 3 -18 14 -45 25
-61 18 -25 46 -104 73 -198 18 -68 21 -190 5 -278 -14 -83 -49 -167 -71 -173
-5 -2 -28 22 -50 52 -41 58 -240 264 -255 264 -4 0 -14 7 -21 17 -8 9 -32 24
-55 34 -25 12 -51 34 -67 58 -25 38 -72 62 -127 66 -8 1 -26 6 -40 12 -166 70
-370 112 -405 83 -8 -7 -12 -16 -9 -21 3 -5 -1 -19 -8 -31 -17 -32 -13 -43 37
-90 25 -22 45 -44 45 -48 0 -9 -69 -34 -75 -28 -8 8 -355 1029 -355 1044 0 9
10 30 22 46 12 17 23 52 26 79 l5 49 -85 86 -84 86 -65 5 -64 6 -45 69 c-198
305 -560 518 -930 547 -71 6 -105 12 -108 21 -10 28 -57 60 -95 67 -31 5 -51
18 -93 62 l-53 56 -83 1 -82 0 -39 135 c-21 73 -43 140 -49 147 -14 17 -53 14
-123 -9z m75 -116 c43 -155 53 -194 46 -200 -13 -13 -25 14 -60 138 -41 146
-40 139 -22 139 9 0 22 -29 36 -77z m168 -231 c-12 -15 -27 -29 -33 -31 -5 -1
-15 -7 -22 -13 -7 -5 -17 -7 -24 -3 -8 5 -9 1 -4 -14 4 -12 2 -21 -4 -21 -6 0
-11 5 -11 11 0 5 -4 7 -10 4 -16 -10 -12 3 15 45 24 38 26 39 103 48 9 1 5 -9
-10 -26z m207 -79 c15 -12 16 -14 3 -10 -10 3 -19 -1 -22 -10 -8 -19 -15 -13
-21 16 -5 25 12 27 40 4z m-45 -53 c0 -5 -7 -10 -15 -10 -8 0 -15 5 -15 10 0
6 7 10 15 10 8 0 15 -4 15 -10z m360 -77 c55 -20 136 -62 260 -134 36 -20 160
-118 160 -125 0 -3 -19 5 -42 19 -197 115 -360 179 -458 180 -56 0 -75 -5
-139 -37 -165 -83 -490 -207 -537 -205 -20 1 -14 3 136 66 167 69 367 175 444
236 55 43 62 43 176 0z m78 -285 c6 -1 12 -5 12 -10 0 -5 10 -13 23 -19 19 -8
23 -19 25 -60 1 -32 -2 -48 -8 -44 -5 3 -10 1 -10 -6 0 -21 -34 -38 -77 -39
-33 0 -46 5 -62 26 -12 15 -21 41 -21 59 0 33 28 74 51 76 12 0 12 1 0 6 -21
8 7 22 33 16 12 -2 27 -5 34 -5z m-1048 -133 c-6 -8 -9 -19 -5 -25 3 -5 -1
-10 -9 -10 -9 0 -16 -7 -16 -15 0 -10 10 -15 30 -15 20 0 30 5 30 15 0 12 8
14 33 10 17 -4 34 -10 35 -16 2 -5 9 -6 14 -3 7 4 8 2 4 -4 -7 -12 19 -72 36
-83 13 -8 0 -71 -13 -63 -5 3 -9 -4 -9 -15 0 -12 -11 -24 -30 -33 -16 -7 -30
-15 -30 -18 0 -3 -18 -6 -40 -7 -30 -1 -43 3 -54 19 -8 11 -19 18 -24 14 -5
-3 -7 5 -4 19 3 18 0 25 -12 25 -20 0 -20 7 -1 26 21 21 19 33 -4 31 -11 0
-17 -5 -15 -9 3 -4 -2 -23 -11 -42 -9 -19 -25 -67 -35 -108 -10 -40 -19 -61
-19 -47 -2 60 62 254 81 243 4 -3 6 1 3 8 -6 16 51 118 66 118 8 0 8 -5 -1
-15z m35 -15 c3 -5 2 -10 -4 -10 -5 0 -13 5 -16 10 -3 6 -2 10 4 10 5 0 13 -4
16 -10z m1620 -175 c34 -17 55 -50 55 -88 0 -32 -18 -47 -56 -47 -66 0 -112
100 -62 134 27 19 23 19 63 1z m402 -47 c-3 -8 -6 -5 -6 6 -1 11 2 17 5 13 3
-3 4 -12 1 -19z m103 -107 c0 -3 -15 9 -33 27 -48 47 -68 39 -22 -8 21 -22 35
-40 30 -40 -6 0 -21 12 -34 25 -13 14 -30 25 -39 25 -11 0 -1 -15 27 -44 32
-33 42 -49 37 -63 -7 -15 -9 -14 -20 12 -14 31 -53 72 -65 68 -10 -5 -6 10 14
50 l19 37 43 -42 c24 -23 43 -44 43 -47z m-160 5 c0 -2 -8 -10 -17 -17 -16
-13 -17 -12 -4 4 13 16 21 21 21 13z m100 -117 c0 -31 -19 -51 -21 -22 -1 10
-1 22 0 26 1 4 -11 21 -27 38 -19 20 -33 28 -45 23 -15 -5 -12 -13 23 -50 22
-24 40 -50 40 -57 0 -7 -12 -24 -27 -38 -14 -13 -22 -17 -18 -9 26 44 -15 118
-63 112 -22 -3 -21 -5 17 -48 48 -51 48 -70 1 -110 -62 -52 -67 -55 -68 -41
-2 25 -21 89 -28 95 -4 4 -4 -1 -1 -11 6 -17 5 -17 -15 -2 -39 27 -40 16 -3
-30 47 -56 42 -72 -39 -130 -61 -43 -89 -53 -111 -37 -19 12 -55 69 -55 85 0
22 -20 32 -33 17 -9 -10 -8 -12 6 -7 11 4 16 3 12 -3 -4 -6 3 -27 14 -46 12
-20 19 -40 15 -45 -3 -5 -2 -9 3 -8 4 1 21 -1 36 -6 l28 -8 -41 -27 c-25 -16
-50 -26 -61 -23 -24 7 -69 63 -69 86 0 10 -4 17 -10 17 -5 0 -10 -7 -10 -15 0
-8 -4 -15 -9 -15 -13 0 -9 -39 7 -67 14 -26 37 -32 28 -8 -5 13 -2 13 25 -1
l31 -16 -22 -15 c-13 -9 -38 -18 -56 -20 -29 -3 -36 1 -59 34 -14 21 -25 44
-25 51 0 10 -3 10 -15 -2 -8 -8 -24 -17 -35 -21 -18 -6 -17 -9 12 -50 28 -40
34 -43 47 -31 12 11 21 12 34 4 17 -9 15 -12 -18 -32 -23 -14 -47 -21 -62 -18
-26 5 -63 54 -63 85 0 16 -3 16 -39 -5 -38 -22 -39 -23 -24 -48 34 -57 40 -62
61 -49 11 7 28 9 38 5 17 -6 14 -10 -19 -30 -63 -38 -101 -23 -128 51 l-12 31
-31 -21 c-17 -12 -32 -23 -34 -24 -2 0 8 -19 22 -42 24 -37 28 -40 52 -31 14
6 32 6 40 2 11 -6 5 -13 -23 -26 -46 -22 -74 -28 -90 -18 -6 4 -23 32 -37 62
l-26 55 106 53 c57 29 102 57 99 62 -3 5 9 16 27 25 29 14 30 14 14 0 -11 -8
-24 -15 -30 -15 -5 0 -7 -3 -4 -6 12 -12 233 119 233 138 0 6 25 26 55 46 30
19 49 28 41 18 -30 -36 12 -12 125 72 66 49 144 113 174 143 l55 54 43 -40
c29 -27 42 -47 42 -66z m-181 31 c-30 -27 -57 -50 -62 -50 -4 0 18 23 48 50
30 28 58 50 61 50 3 0 -18 -22 -47 -50z m-2074 -30 c-4 -34 -9 -59 -12 -56 -3
3 -2 32 2 66 4 34 9 59 12 56 3 -3 2 -32 -2 -66z m2035 56 c0 -2 -8 -10 -17
-17 -16 -13 -17 -12 -4 4 13 16 21 21 21 13z m-45 -96 c-3 -5 -16 -15 -28 -21
-21 -10 -21 -9 2 10 25 23 36 27 26 11z m314 -137 c22 -68 41 -125 41 -127 0
-3 -21 -20 -47 -38 -27 -18 -57 -40 -67 -50 -11 -10 -24 -18 -28 -18 -5 0 -35
-18 -67 -39 -31 -22 -77 -50 -101 -64 -60 -33 -67 -47 -47 -88 8 -19 17 -40
19 -47 3 -13 -69 -44 -347 -152 -82 -32 -157 -61 -166 -65 -14 -5 -23 13 -54
107 -20 62 -38 118 -40 124 -2 6 63 46 143 89 151 81 324 185 447 271 76 53
219 169 249 203 11 11 20 20 21 19 2 -2 21 -58 44 -125z m-429 103 c0 -2 -8
-10 -17 -17 -16 -13 -17 -12 -4 4 13 16 21 21 21 13z m25 -32 c-33 -28 -65
-47 -65 -40 0 6 82 65 90 65 3 0 -8 -11 -25 -25z m-618 -116 c-9 -6 -8 -10 3
-18 12 -8 13 -10 1 -10 -8 0 -11 -3 -8 -7 4 -3 -3 -11 -14 -17 -12 -6 -20 -14
-18 -18 8 -16 -158 -109 -180 -100 -8 2 -11 1 -8 -4 3 -5 -15 -10 -39 -12 -25
-2 -57 -7 -72 -12 -25 -10 -26 -9 -8 5 20 15 20 15 0 16 -10 0 -13 3 -6 6 6 2
10 9 7 13 -3 5 4 7 16 5 21 -4 21 -4 4 15 -17 18 -16 20 16 49 18 17 36 28 41
25 4 -3 8 -1 8 4 0 14 84 54 119 57 17 1 34 5 38 9 4 3 30 5 59 4 30 -1 48 -6
41 -10z m423 -12 c0 -5 -69 -46 -78 -46 -3 0 9 11 28 25 33 23 50 30 50 21z
m2970 -156 c80 0 164 -60 192 -137 16 -45 32 -42 26 5 -4 24 0 45 8 57 14 18
16 19 42 2 15 -9 26 -21 25 -26 -1 -5 5 -8 14 -7 29 2 76 -88 81 -155 3 -38 9
-59 16 -56 16 5 19 55 6 103 -13 46 -13 46 60 155 3 5 28 2 54 -6 63 -19 126
-19 153 0 20 14 27 13 73 -5 28 -11 65 -20 83 -20 36 0 77 -23 64 -37 -5 -4
-54 -8 -110 -8 -135 -1 -160 -16 -92 -56 l35 -21 -43 -28 c-47 -29 -87 -74
-87 -96 0 -8 2 -14 5 -14 10 0 83 49 90 60 3 5 30 10 59 10 54 0 94 19 82 38
-3 6 -30 26 -58 44 l-51 33 56 3 c42 2 72 -3 120 -23 68 -27 92 -31 102 -15 8
14 -18 60 -54 94 -17 16 -28 34 -24 39 3 6 1 7 -4 4 -6 -4 -18 2 -28 13 -18
19 -17 20 4 20 12 0 20 -3 18 -7 -3 -5 6 -9 20 -10 40 -2 185 -78 226 -118
l37 -36 0 39 c0 22 -7 59 -15 82 -8 24 -12 46 -9 49 14 14 153 -153 194 -232
44 -88 57 -107 72 -107 26 0 -22 123 -75 192 -19 25 -32 49 -29 53 4 4 2 5 -4
3 -12 -3 -98 82 -90 89 2 2 15 -1 30 -7 58 -22 97 -5 64 28 -18 18 28 16 86
-4 31 -11 51 -25 59 -41 13 -28 39 -27 47 4 l5 22 27 -24 c16 -13 23 -27 18
-30 -17 -11 -11 -25 10 -25 32 0 74 25 108 64 31 35 32 35 43 15 18 -35 24
-136 8 -155 -11 -14 -10 -16 11 -12 17 2 27 12 33 35 7 22 17 33 36 36 14 3
38 9 53 12 23 6 28 4 34 -19 10 -40 -15 -114 -52 -153 -18 -19 -37 -32 -41
-30 -5 3 -9 -3 -9 -12 0 -16 5 -17 30 -10 16 5 36 15 46 24 32 29 71 18 128
-34 52 -48 64 -71 38 -71 -22 0 -86 -65 -86 -87 0 -33 10 -33 70 -3 32 16 68
32 81 34 13 3 42 10 64 15 54 14 90 13 50 -1 -16 -6 -38 -17 -47 -25 -9 -8
-22 -12 -29 -7 -7 4 -10 3 -6 -3 4 -6 0 -19 -8 -29 -8 -10 -15 -22 -15 -26 0
-5 33 -8 73 -8 89 0 161 -20 205 -57 l33 -28 -59 0 c-50 0 -65 -4 -86 -24 -14
-14 -26 -27 -26 -31 0 -3 32 -16 71 -29 39 -12 85 -36 102 -51 l32 -29 -37 6
c-36 5 -68 -8 -68 -28 0 -4 27 -27 60 -49 33 -22 60 -42 60 -44 0 -2 -20 -1
-44 1 -24 3 -52 1 -61 -5 -16 -8 -13 -12 20 -35 58 -39 87 -90 92 -162 4 -37
13 -71 24 -86 22 -30 36 -18 20 18 -10 23 -10 26 0 16 14 -14 39 0 39 23 0 27
31 45 66 38 19 -3 34 -4 34 -1 0 17 -14 37 -27 37 -8 0 -11 5 -8 10 3 6 1 10
-4 10 -19 0 -12 17 9 23 11 3 20 2 20 -3 0 -4 11 -5 25 -2 16 3 24 10 23 21
-2 10 5 17 20 19 23 4 23 4 6 23 -16 17 -16 22 -4 29 12 8 12 10 -3 10 -17 0
-77 -26 -87 -39 -22 -27 -40 -33 -57 -20 -16 12 -17 12 -6 -1 10 -13 5 -23
-23 -55 -20 -22 -33 -32 -30 -23 3 9 2 18 -2 20 -4 2 -14 24 -23 49 -15 44
-15 46 3 41 11 -2 20 3 25 14 5 13 -6 29 -44 64 -35 32 -48 51 -43 60 7 11 14
10 37 -5 15 -10 34 -26 41 -34 10 -14 11 -12 7 9 -4 17 0 34 13 50 10 14 21
33 25 43 3 9 11 17 17 17 6 0 9 -4 6 -9 -3 -5 1 -11 9 -15 8 -3 15 -12 15 -20
0 -8 5 -18 12 -22 7 -4 8 -3 4 4 -6 10 15 27 81 65 6 4 19 0 27 -9 9 -8 16
-11 16 -5 0 6 8 11 18 11 10 0 13 -3 7 -8 -23 -16 -10 -37 26 -40 26 -2 46
-13 70 -38 23 -24 42 -34 63 -34 61 0 63 -7 34 -124 -26 -102 -70 -190 -103
-203 -8 -2 -11 -11 -8 -19 3 -8 0 -14 -6 -14 -6 0 -10 -6 -9 -12 2 -7 -3 -12
-10 -10 -8 1 -11 -2 -7 -7 3 -6 -16 -26 -44 -46 -60 -43 -70 -62 -36 -71 28
-7 34 -34 8 -34 -15 -1 -15 -3 5 -19 12 -11 22 -22 22 -25 0 -4 -10 -11 -22
-16 -22 -8 -22 -9 8 -15 17 -4 46 -23 65 -42 l33 -36 -29 16 c-52 26 -108 37
-204 38 -92 1 -94 1 -124 -30 -37 -37 -29 -50 19 -32 55 20 189 16 254 -7 30
-10 54 -24 53 -29 -1 -6 5 -10 14 -9 14 1 83 -85 83 -105 0 -5 -30 -8 -66 -7
-99 4 -103 -12 -25 -87 69 -66 136 -186 147 -265 l7 -45 -50 46 c-55 51 -82
64 -119 55 -29 -8 -31 -22 -5 -29 22 -5 55 -87 78 -192 16 -72 24 -288 11
-301 -5 -4 -20 -1 -35 6 -16 7 -41 16 -57 21 l-29 8 6 -72 c6 -90 -8 -188 -30
-205 -9 -6 -13 -12 -8 -12 4 0 6 -2 3 -5 -2 -3 -22 4 -43 15 -39 20 -80 25
-109 14 -21 -8 -10 -24 16 -24 19 0 20 -4 15 -62 -5 -68 -44 -181 -58 -172 -5
3 -6 -1 -4 -8 3 -8 -3 -23 -13 -33 -10 -11 -21 -28 -25 -38 -4 -11 -12 -15
-18 -11 -8 5 -9 3 -4 -5 7 -13 -46 -71 -66 -71 -5 0 -9 15 -9 33 0 34 -33 97
-50 97 -6 0 -9 4 -6 8 2 4 -11 6 -30 4 -28 -3 -34 -8 -29 -22 4 -13 -6 -26
-33 -46 -60 -45 -132 -111 -132 -121 0 -5 -16 -15 -35 -22 -87 -31 -185 -172
-205 -294 -11 -70 -30 -107 -72 -139 -18 -14 -46 -38 -63 -53 -82 -73 -163
-116 -271 -146 -43 -12 -89 -28 -102 -37 -12 -8 -25 -12 -29 -8 -3 3 -11 2
-17 -3 -23 -19 -286 -42 -486 -43 -161 -1 -167 0 -249 30 -166 62 -411 203
-569 326 -57 45 -111 86 -119 91 -19 13 -243 271 -243 281 0 4 -27 51 -60 105
-97 158 -116 217 -90 285 11 29 63 84 79 84 11 0 21 -25 21 -51 0 -10 5 -19
11 -19 7 0 9 11 5 33 -4 17 -11 65 -16 105 -10 90 -49 172 -96 208 -28 22 -41
25 -74 20 -38 -6 -39 -5 -50 31 -19 69 -23 193 -6 253 18 68 9 81 -39 56 -19
-11 -35 -22 -35 -25 0 -3 -14 -22 -31 -41 -17 -19 -28 -27 -25 -18 2 9 0 18
-6 20 -20 7 -23 197 -4 262 10 32 15 60 12 63 -10 11 -75 -8 -110 -32 -31 -21
-38 -22 -43 -10 -15 40 49 321 70 308 6 -3 7 -1 3 5 -13 21 105 214 121 198 6
-5 31 20 62 63 19 27 21 35 10 43 -23 15 -93 2 -155 -29 -87 -44 -104 -48
-104 -25 0 21 65 114 121 173 95 99 282 206 340 194 36 -8 40 11 5 25 -13 5
-40 25 -60 46 -34 35 -35 38 -19 56 9 10 46 33 82 51 60 29 74 32 154 31 l89
0 -65 33 c-66 33 -90 64 -68 86 8 8 26 6 67 -7 67 -21 80 -15 29 15 l-37 22
23 18 c13 10 32 21 42 25 36 12 5 34 -50 34 -40 0 -35 19 11 42 l45 21 -24 29
c-14 16 -31 52 -40 80 -16 56 -20 132 -6 124 4 -3 6 7 4 22 l-4 27 20 -24 c12
-12 18 -28 14 -35 -3 -6 -3 -8 2 -4 4 4 16 -4 27 -17 18 -23 58 -35 58 -17 0
4 -9 31 -20 60 -22 59 -18 101 22 200 16 41 25 52 37 47 13 -5 14 -4 4 6 -7 7
-13 18 -13 23 0 6 5 5 12 -2 7 -7 23 -12 38 -12z m-3435 -100 c-3 -5 -12 -10
-18 -10 -7 0 -6 4 3 10 19 12 23 12 15 0z m35 -10 c0 -6 -11 -16 -25 -22 -30
-14 -31 -23 -2 -70 18 -29 26 -34 40 -27 10 6 27 7 39 3 20 -6 18 -9 -21 -29
-60 -30 -87 -23 -111 31 -11 23 -20 48 -20 54 0 7 -6 5 -15 -4 -8 -8 -24 -17
-34 -21 -19 -6 -19 -7 -2 -46 23 -51 25 -53 51 -39 18 10 25 9 37 -3 13 -13
11 -16 -23 -28 -67 -22 -87 -18 -106 21 -9 19 -17 45 -18 58 0 27 -5 27 -29 3
-10 -10 -24 -20 -31 -23 -10 -3 3 -47 26 -86 1 -2 12 1 23 7 15 9 26 8 40 -1
18 -11 17 -13 -17 -28 -32 -15 -48 -16 -94 -11 -4 1 -15 25 -24 55 -14 46 -19
52 -31 41 -7 -8 -22 -16 -32 -20 -19 -6 -19 -8 -4 -43 20 -49 27 -56 50 -44
13 7 23 6 36 -2 15 -12 12 -15 -26 -30 -23 -9 -43 -12 -45 -7 -2 5 -11 7 -20
4 -19 -5 -52 51 -52 87 0 18 -1 18 -32 2 -18 -9 -34 -17 -35 -18 -2 0 5 -20
14 -43 15 -39 19 -42 44 -37 17 3 32 0 38 -8 9 -11 6 -15 -16 -22 -16 -4 -42
-9 -60 -9 -28 -2 -34 2 -47 37 -9 21 -16 47 -16 57 0 17 -2 18 -33 2 l-32 -16
15 -46 c13 -40 18 -46 35 -39 13 5 28 3 38 -5 16 -11 13 -14 -28 -28 -25 -9
-43 -12 -40 -7 3 5 -5 10 -17 12 -17 2 -26 15 -39 58 -9 30 -17 49 -18 43 -1
-7 -8 -13 -16 -13 -23 0 -28 -24 -15 -65 9 -27 17 -36 30 -32 9 2 25 0 36 -6
16 -9 14 -12 -19 -23 -60 -21 -83 -6 -98 62 -7 32 -15 52 -17 46 -2 -7 -10
-12 -18 -12 -22 0 -27 -25 -14 -65 8 -26 17 -35 33 -35 12 0 28 -4 36 -9 21
-14 -54 -32 -84 -21 -19 7 -25 19 -30 64 l-7 55 -27 -16 c-14 -10 -27 -18 -29
-19 -2 -1 2 -21 9 -44 10 -32 17 -40 30 -37 10 3 23 -1 30 -9 11 -14 10 -15
-39 -30 -29 -9 -51 16 -63 71 -8 35 -16 52 -23 47 -6 -4 -15 -7 -21 -7 -12 0
-12 -8 -2 -57 6 -27 13 -38 26 -38 10 0 24 -6 30 -14 9 -11 5 -15 -21 -19 -46
-7 -65 14 -74 80 -3 30 -9 51 -13 46 -3 -5 -13 -12 -23 -16 -13 -5 -15 -12 -7
-44 5 -21 9 -41 9 -45 0 -5 6 -8 14 -8 7 0 19 -6 25 -14 9 -11 6 -14 -17 -18
-39 -6 -58 18 -67 82 -5 30 -10 49 -12 43 -3 -7 -11 -13 -18 -13 -20 0 -7 -72
16 -89 24 -17 24 -28 1 -33 -26 -6 -49 27 -56 82 -6 45 -8 49 -22 36 -17 -18
-15 -96 2 -96 6 0 17 -7 24 -15 11 -13 9 -15 -13 -15 -34 0 -45 17 -53 83 -6
53 -8 56 -21 37 -14 -20 -9 -90 7 -90 4 0 10 -6 13 -14 4 -10 0 -12 -15 -9
-25 7 -38 41 -38 99 l0 44 54 0 c66 0 209 24 296 49 36 10 92 27 125 36 70 21
293 99 347 122 21 9 35 20 31 26 -3 6 -1 7 6 3 6 -4 28 -2 47 4 28 9 33 15 23
22 -10 6 -7 7 10 3 16 -5 21 -4 17 4 -4 6 -1 9 7 5 18 -7 218 86 211 97 -3 5
2 6 10 3 8 -3 31 4 53 15 44 23 53 25 53 11z m-160 -50 c-19 -11 -39 -19 -45
-19 -5 0 6 8 25 19 19 11 40 19 45 19 6 0 -6 -8 -25 -19z m2965 -30 c29 -11
146 -101 152 -116 3 -8 8 -12 13 -9 4 2 18 -7 30 -20 13 -14 28 -25 34 -25 6
0 25 20 41 44 l30 45 6 -27 c4 -15 7 -61 8 -103 1 -64 -2 -79 -19 -94 -14 -13
-20 -31 -20 -61 0 -33 -4 -44 -19 -49 -27 -8 -44 -55 -32 -88 10 -25 7 -27
-72 -71 -45 -25 -89 -51 -97 -58 -35 -30 -71 -82 -65 -96 8 -21 -12 -32 -57
-32 -27 0 -40 -6 -48 -19 -14 -27 2 -34 47 -22 51 14 61 14 38 -3 -11 -7 -46
-16 -77 -20 -105 -12 -150 -54 -52 -48 62 3 48 -14 -33 -40 -69 -21 -79 -22
-65 -5 5 6 17 35 25 62 8 28 25 72 37 100 21 46 22 58 16 173 -4 77 -13 145
-25 180 -10 32 -22 75 -26 97 -3 22 -9 50 -12 63 -5 20 -1 22 31 22 34 0 35 1
24 20 -7 11 -26 27 -43 35 l-30 16 35 -7 c36 -7 54 -23 70 -61 13 -32 22 -29
64 17 20 22 39 40 42 40 3 0 20 11 38 25 40 30 80 32 124 5 54 -33 54 -23 -1
29 -45 42 -127 101 -141 101 -3 0 -6 -17 -8 -37 l-3 -38 -11 48 c-12 52 -14
51 51 27z m-100 1 c3 -5 1 -12 -5 -16 -5 -3 -10 1 -10 9 0 18 6 21 15 7z
m-3035 -5 c0 -2 -7 -7 -16 -10 -8 -3 -12 -2 -9 4 6 10 25 14 25 6z m3050 -69
c0 -16 -6 -23 -20 -23 -22 0 -27 25 -8 44 15 15 28 6 28 -21z m-2610 18 c0 -3
-21 -16 -47 -29 -27 -13 -73 -37 -103 -54 -30 -18 -63 -32 -72 -32 -10 0 -18
-4 -18 -8 0 -4 -21 -20 -47 -34 -85 -45 -594 -309 -641 -332 -30 -15 -25 -34
38 -136 28 -45 50 -85 50 -88 0 -8 -211 -91 -250 -99 -24 -4 -32 8 -132 186
l-107 191 47 2 c65 2 83 4 112 11 14 4 75 18 135 32 246 57 612 193 925 344
115 55 110 53 110 46z m2598 -87 c-17 -25 -31 -27 -36 -4 -2 8 6 16 20 19 13
2 25 5 27 6 2 0 -3 -9 -11 -21z m-1758 -7 c5 -11 10 -26 9 -33 0 -7 -5 -3 -11
10 -14 28 -39 28 -91 -2 -237 -133 -330 -192 -338 -213 -5 -13 -17 -23 -27
-23 -23 0 -213 -93 -380 -184 l-118 -65 -19 -76 c-17 -71 -35 -99 -35 -55 0
76 -241 30 -324 -63 -29 -33 -64 -94 -77 -137 -7 -23 -7 -22 -8 10 -2 67 103
199 152 191 4 0 7 4 7 9 0 6 9 10 21 10 11 0 34 9 50 21 24 17 40 20 92 16 34
-2 72 -8 85 -12 20 -7 22 -4 22 32 0 59 30 90 135 139 51 24 115 56 143 73 28
16 97 53 154 82 57 29 117 64 133 77 17 14 57 38 90 53 33 15 107 57 165 93
111 68 152 79 170 47z m1522 12 c-6 -2 -9 -10 -6 -15 4 -7 2 -8 -5 -4 -13 9
-5 26 12 25 9 0 8 -2 -1 -6z m61 -10 c-7 -2 -21 -2 -30 0 -10 3 -4 5 12 5 17
0 24 -2 18 -5z m-1613 -59 c0 -8 -6 -32 -12 -54 -11 -35 -16 -39 -48 -42 -31
-3 -36 -7 -48 -42 -20 -62 -28 -68 -69 -48 -33 16 -35 16 -50 -3 -10 -14 -12
-32 -8 -60 l6 -39 -24 22 c-13 12 -27 22 -32 22 -23 0 -85 37 -85 51 0 11 28
31 78 57 89 46 253 139 266 152 12 12 26 3 26 -16z m44 -109 c15 -35 25 -68
22 -73 -3 -5 -44 -32 -91 -61 -47 -29 -85 -56 -85 -61 0 -4 18 -47 41 -94 32
-69 45 -86 62 -86 12 0 33 -9 47 -20 32 -25 50 -25 50 0 0 21 33 29 45 10 13
-22 25 -8 25 30 0 22 4 40 8 40 5 0 19 -25 31 -55 27 -66 28 -65 -73 -131
l-73 -48 51 -108 c28 -59 55 -108 61 -108 6 0 24 -13 40 -30 32 -33 39 -32 40
8 0 37 31 42 46 8 15 -31 29 -34 29 -5 0 11 5 41 11 65 l12 46 29 -66 c16 -37
26 -70 23 -75 -13 -22 -246 -171 -257 -165 -7 4 -8 3 -4 -4 3 -6 -2 -16 -13
-21 -18 -10 -36 24 -238 429 -120 241 -213 435 -208 431 6 -5 22 -11 37 -15
15 -3 35 -17 44 -31 26 -40 37 -30 30 28 -8 67 3 86 35 63 36 -25 56 -20 64
14 14 63 70 101 103 68 9 -9 12 -2 12 35 0 26 3 47 8 47 4 0 20 -29 36 -65z
m58 -42 c7 -13 8 -50 5 -91 l-7 -69 30 5 c28 4 66 -18 53 -32 -4 -3 -1 -6 5
-6 7 0 12 -10 12 -22 0 -13 14 -57 31 -98 28 -68 30 -82 25 -147 l-6 -73 40 0
c47 0 53 -8 101 -125 38 -96 35 -91 53 -76 18 15 50 1 66 -29 17 -32 12 -95
-9 -114 -18 -16 -21 -16 -45 -1 -25 16 -25 16 -31 -17 -6 -25 -21 -43 -64 -74
-74 -55 -378 -251 -461 -297 -100 -56 -94 -49 -72 -88 26 -48 121 -225 186
-349 49 -95 58 -105 85 -108 24 -3 39 6 78 43 83 80 78 77 107 65 15 -5 34
-25 42 -42 8 -18 22 -44 29 -58 23 -39 16 -138 -8 -123 -6 3 -7 1 -3 -5 4 -7
-3 -17 -19 -24 l-26 -12 28 -11 c37 -16 43 -11 43 32 0 24 8 45 22 60 26 27
35 28 60 6 25 -23 32 -11 18 32 -10 30 -9 40 4 60 20 30 51 32 65 6 10 -18 12
-18 44 -2 l34 16 -64 190 c-66 199 -81 270 -24 119 18 -49 39 -102 46 -119 7
-16 23 -56 36 -88 28 -71 48 -69 64 6 3 17 12 27 23 27 42 0 107 -111 80 -134
-7 -6 -10 -7 -6 -2 4 5 1 23 -7 41 -7 19 -10 37 -7 41 4 4 -1 4 -10 1 -11 -4
-19 0 -23 13 -8 26 -45 22 -45 -5 0 -12 5 -26 11 -32 18 -18 1 -37 -19 -21 -9
8 -13 8 -9 2 4 -7 0 -15 -9 -18 -11 -4 -15 -15 -12 -34 3 -22 0 -28 -14 -29
-10 -1 -16 2 -13 8 8 12 -2 11 -26 -2 -12 -6 -18 -17 -15 -24 3 -8 1 -17 -5
-20 -5 -4 -6 -12 -3 -18 5 -9 4 -9 -5 -1 -6 6 -13 21 -16 33 -2 13 -9 29 -16
37 -14 17 -33 19 -23 2 4 -7 3 -8 -5 -4 -19 12 -25 -24 -9 -57 12 -29 12 -36
-4 -67 -10 -19 -18 -28 -18 -20 -1 16 -33 60 -45 60 -3 0 -3 -4 0 -10 3 -5 0
-7 -9 -4 -20 8 -32 -37 -17 -64 9 -16 7 -21 -10 -25 -12 -3 -19 -9 -16 -14 3
-4 -1 -14 -9 -21 -11 -10 -15 -8 -24 8 -15 28 -39 25 -71 -11 -23 -25 -27 -38
-24 -77 1 -26 4 -54 7 -63 5 -20 30 -46 49 -51 22 -4 80 23 72 35 -3 6 -1 7 5
3 7 -4 12 -1 12 9 0 9 -4 13 -10 10 -5 -3 -8 0 -5 7 3 7 20 13 37 13 27 0 35
6 48 33 12 25 18 30 27 21 9 -9 15 -6 24 14 6 14 22 28 36 31 14 4 30 21 40
41 13 27 19 32 30 24 9 -8 13 -8 13 -1 0 6 7 9 15 6 19 -8 29 19 16 44 -9 16
-7 18 12 15 15 -3 22 -12 24 -30 0 -14 7 -29 15 -34 7 -5 9 -9 3 -9 -5 0 -4
-4 3 -9 11 -6 8 -13 -12 -28 -14 -11 -22 -23 -18 -27 3 -4 -2 -4 -12 0 -12 5
-17 4 -13 -3 3 -5 0 -10 -8 -10 -8 0 -15 6 -15 14 0 14 -18 17 -36 5 -6 -4
-10 -29 -9 -56 0 -31 -4 -50 -12 -53 -7 -3 -10 -9 -7 -14 6 -10 -27 -6 -67 6
-14 5 -19 3 -15 -3 3 -6 -2 -8 -13 -5 -12 3 -26 -5 -40 -23 -21 -27 -29 -60
-12 -50 5 3 14 -8 20 -24 5 -17 15 -30 20 -30 6 0 10 -3 9 -7 -4 -16 22 -51
41 -56 21 -5 51 28 51 58 0 10 10 15 28 15 35 0 45 9 31 27 -8 9 -8 13 0 13 7
0 8 8 1 25 -8 20 -6 27 5 31 8 4 21 1 29 -5 7 -6 16 -8 19 -4 4 3 7 1 7 -5 0
-6 -9 -17 -20 -25 -11 -8 -17 -17 -12 -22 4 -5 2 -5 -5 -1 -16 9 -11 -60 5
-76 14 -14 46 8 35 25 -3 6 -1 7 5 3 7 -4 12 -13 12 -21 0 -23 42 -86 54 -82
6 2 12 15 13 28 2 42 3 44 11 32 11 -17 52 20 54 51 1 15 7 25 13 23 5 -2 9
-12 8 -22 -1 -17 70 -211 192 -520 24 -60 53 -136 65 -167 12 -32 27 -58 34
-58 16 0 87 154 110 239 11 40 15 77 11 100 -4 20 -4 33 -1 30 13 -12 136
-389 136 -415 0 -39 -52 -127 -109 -183 -77 -78 -189 -163 -202 -155 -7 4 -9
3 -5 -4 12 -20 -250 -164 -429 -235 -211 -83 -374 -124 -535 -133 -119 -8
-204 10 -240 49 -11 12 -48 71 -82 132 -34 60 -78 139 -99 175 -21 35 -37 65
-35 67 1 2 32 -10 67 -26 60 -27 190 -71 210 -71 5 0 -28 74 -73 165 -72 144
-86 165 -110 171 -16 3 -41 16 -56 28 -15 12 -48 35 -75 50 -26 15 -47 31 -47
37 0 6 10 3 22 -5 12 -9 29 -16 36 -16 8 0 31 -13 52 -30 31 -24 43 -28 73
-23 25 4 44 0 61 -11 14 -9 43 -16 66 -16 22 0 40 -4 40 -10 0 -5 7 -10 16
-10 8 0 13 -4 10 -9 -4 -5 2 -7 11 -5 10 3 37 -2 60 -10 38 -14 43 -13 52 1 6
12 17 14 40 10 19 -4 46 -1 64 6 19 8 43 11 59 6 16 -4 28 -3 30 3 3 7 11 7
27 -1 18 -10 25 -10 38 0 14 13 24 14 96 18 22 1 27 6 27 26 0 23 14 31 44 26
5 -1 42 3 81 10 l73 11 16 58 c9 32 14 64 10 73 -7 20 30 41 61 33 19 -5 25 0
36 27 7 17 23 46 36 63 25 33 22 44 -12 44 -33 0 -75 23 -75 43 0 9 -5 17 -11
17 -7 0 -5 10 5 25 9 13 16 29 16 35 0 14 -89 12 -190 -4 -55 -9 -91 -11 -103
-5 -9 6 -34 7 -55 4 -29 -4 -32 -3 -15 4 15 7 20 16 16 30 -6 25 -6 25 -43 6
-28 -15 -30 -14 -30 4 0 10 -24 41 -54 68 -54 50 -128 90 -265 144 -76 31 -93
42 -104 72 -4 10 -23 25 -42 33 -19 8 -35 16 -35 18 0 3 -3 11 -6 20 -4 11 0
16 14 16 10 0 36 13 57 30 20 16 54 32 74 36 64 10 101 25 111 44 6 12 17 16
30 13 26 -7 97 64 81 80 -7 7 -5 19 7 39 13 22 26 29 63 34 48 6 59 17 74 72
8 29 -3 62 -21 62 -8 0 -14 5 -14 11 0 5 5 7 11 4 13 -8 -12 37 -26 47 -16 12
-23 10 -58 -24 -95 -91 -108 -100 -146 -95 -69 8 -373 -12 -404 -28 -16 -8
-33 -12 -38 -9 -5 3 -9 0 -9 -5 0 -6 -10 -11 -21 -11 -20 0 -21 1 -5 25 9 14
16 45 16 75 l0 50 -40 6 c-24 4 -40 12 -40 20 0 8 -6 14 -14 14 -8 0 -22 7
-31 16 -9 9 -40 18 -71 21 -46 5 -61 2 -84 -16 -29 -21 -29 -21 -40 -1 -9 16
-6 22 19 35 53 27 211 15 211 -17 0 -4 5 -8 11 -8 7 0 17 -7 23 -16 6 -8 18
-16 26 -17 8 -1 26 -10 39 -19 19 -14 23 -25 23 -63 -1 -43 0 -46 21 -39 12 4
40 9 62 10 22 1 73 6 113 10 85 8 83 -1 31 139 -16 44 -49 136 -73 205 -31 91
-48 126 -61 128 -10 2 -20 0 -24 -5 -10 -14 -92 -53 -111 -53 -11 0 -25 18
-42 54 -13 30 -28 51 -34 48 -5 -4 -20 -38 -33 -77 -25 -75 -83 -165 -107
-165 -8 0 -14 -4 -14 -10 0 -5 -7 -10 -15 -10 -8 0 -15 -4 -15 -8 0 -12 -93
-32 -103 -23 -4 4 15 13 42 20 112 28 220 181 221 309 0 44 9 36 59 -48 23
-38 46 -70 50 -70 9 0 158 82 328 179 51 29 95 61 98 72 4 11 11 17 16 14 12
-8 32 3 197 113 151 100 161 111 163 185 1 39 1 40 9 14 19 -64 80 -67 80 -4
0 18 -7 42 -15 54 -16 23 -55 27 -55 6 0 -31 -17 -7 -47 65 -18 42 -38 91 -43
108 -6 18 -20 34 -31 37 -32 9 -101 -20 -140 -59 -19 -19 -38 -31 -42 -28 -16
17 -4 36 42 66 49 32 50 35 62 102 11 69 11 70 -20 127 -17 31 -31 68 -31 82
0 13 -7 41 -15 60 -17 42 -15 43 -128 -21 -43 -24 -81 -41 -84 -38 -7 7 -11 4
50 44 27 18 53 30 58 26 5 -3 9 -2 7 3 -1 4 4 40 11 80 12 67 11 77 -8 128
-12 31 -21 61 -20 68 0 7 7 -6 15 -28 9 -22 21 -50 26 -62z m636 12 c57 -20
125 -47 150 -61 26 -14 38 -22 27 -18 -112 38 -146 45 -207 43 -71 -2 -107 12
-128 51 -10 18 -8 20 22 20 18 0 80 -16 136 -35z m-3011 -12 c-3 -20 -1 -47 4
-60 5 -12 5 -23 0 -23 -10 0 -21 49 -21 91 0 16 5 29 11 29 7 0 9 -14 6 -37z
m53 29 c0 -4 -5 -13 -10 -18 -6 -6 -7 -27 -1 -57 4 -26 5 -47 0 -47 -12 0 -16
11 -23 73 -7 53 -6 57 13 57 12 0 21 -4 21 -8z m2827 -103 c-1 -11 -5 -19 -10
-19 -4 0 -7 9 -5 20 2 12 -14 37 -42 67 l-45 48 52 -49 c29 -28 51 -57 50 -67z
m-2910 49 c-3 -7 -5 -2 -5 12 0 14 2 19 5 13 2 -7 2 -19 0 -25z m3953 -70 c0
-10 -4 -18 -10 -18 -5 0 -10 13 -10 29 0 16 -2 38 -5 48 -3 10 1 5 9 -12 8
-16 15 -38 16 -47z m-793 -6 c24 -9 43 -21 43 -25 0 -4 9 -3 19 2 14 8 22 7
32 -5 20 -24 55 -14 51 15 -5 45 55 -45 67 -100 25 -114 5 -317 -36 -378 -13
-18 -23 -37 -23 -41 0 -18 32 -32 63 -27 17 3 26 3 19 0 -6 -2 -10 -8 -7 -13
8 -13 -26 -71 -37 -64 -7 4 -8 2 -4 -4 8 -14 -41 -82 -58 -82 -6 0 -3 7 7 14
9 7 17 17 17 21 0 5 -9 0 -20 -10 -11 -10 -17 -21 -15 -25 3 -4 -2 -14 -11
-21 -8 -7 -24 -29 -34 -48 -10 -20 -36 -57 -59 -82 -22 -26 -37 -50 -33 -55 4
-5 -2 -2 -12 6 -18 14 -19 14 -8 -7 10 -17 9 -25 -3 -36 -8 -8 -11 -17 -8 -21
4 -3 2 -6 -3 -6 -6 0 -17 22 -26 49 -13 41 -13 51 -3 55 8 3 16 0 18 -7 2 -7
4 0 3 15 -1 25 -2 25 -19 11 -9 -9 -20 -13 -24 -10 -4 4 2 14 13 22 16 13 16
14 1 9 -13 -5 -21 3 -33 31 -8 21 -13 46 -11 57 3 10 2 16 -3 13 -12 -8 -22
27 -10 39 7 7 10 6 10 -4 0 -7 2 -11 5 -8 3 2 -2 19 -11 36 -17 34 -27 43 -17
15 4 -13 3 -15 -5 -8 -8 8 -198 552 -205 589 -3 13 102 44 166 49 43 3 65 10
80 26 19 19 20 23 7 32 -23 16 67 2 117 -19z m-1287 -10 c0 -9 -7 -30 -15 -46
-8 -15 -15 -38 -15 -50 0 -34 -13 -45 -50 -43 -25 2 -35 -2 -35 -13 0 -11 -15
-16 -56 -20 -31 -3 -64 -11 -73 -19 -22 -18 -57 -91 -50 -102 3 -5 1 -9 -5 -9
-17 0 -61 23 -61 32 0 5 -20 17 -45 28 -25 11 -45 26 -45 34 0 9 29 28 68 47
89 42 266 131 321 163 47 26 61 26 61 -2z m48 -103 c19 -33 31 -66 29 -72 -3
-7 -55 -39 -116 -72 -61 -33 -111 -63 -111 -67 0 -10 80 -151 98 -170 8 -10
26 -18 39 -18 13 0 42 -9 63 -20 l40 -20 0 25 c0 28 13 31 50 10 14 -8 28 -14
31 -15 13 0 29 52 23 76 -11 43 11 26 39 -31 l27 -55 -41 -25 c-22 -14 -45
-23 -51 -19 -6 4 -8 3 -5 -3 3 -5 -23 -25 -58 -44 -36 -19 -64 -37 -62 -40 1
-4 27 -52 57 -107 l54 -100 85 1 c67 2 89 -1 106 -15 25 -19 35 -15 35 16 0
12 5 39 11 61 l11 40 33 -65 c26 -50 31 -68 22 -77 -16 -15 -368 -216 -371
-211 -2 1 -55 93 -118 203 -63 110 -156 272 -208 360 -51 88 -104 180 -118
205 -14 25 -32 53 -40 63 -20 23 -1 22 29 -2 14 -10 41 -26 62 -34 l37 -16 0
36 c0 41 34 102 58 104 9 1 35 1 57 0 35 -2 43 2 54 23 11 20 18 23 32 16 31
-17 36 -12 54 55 10 36 21 65 24 65 3 0 21 -28 39 -61z m2042 24 c0 -28 -3
-34 -10 -23 -13 20 -13 60 0 60 6 0 10 -17 10 -37z m-467 -50 c142 -133 157
-148 157 -158 0 -6 9 -16 20 -23 48 -30 122 -176 133 -264 5 -39 4 -46 -8 -41
-8 3 -18 16 -21 29 -6 22 -8 22 -77 -30 -40 -30 -117 -79 -172 -111 -109 -62
-152 -92 -191 -133 -29 -31 -88 -146 -83 -161 2 -6 70 27 150 72 80 46 189
108 243 137 92 51 97 56 114 103 17 48 52 84 52 54 0 -35 -42 -104 -82 -135
-54 -42 -256 -160 -371 -219 -49 -24 -111 -60 -138 -79 -27 -19 -49 -31 -49
-27 0 5 11 26 25 48 13 22 25 43 25 48 0 12 -35 8 -58 -8 -20 -15 -21 -15 -15
2 10 27 70 121 114 179 22 28 39 56 39 62 0 6 8 17 18 24 26 19 76 87 101 136
24 46 42 127 34 149 -6 16 -35 17 -49 3 -12 -12 -4 59 14 139 6 25 9 65 7 90
-14 152 -14 171 -4 171 6 0 38 -26 72 -57z m-1030 25 c4 -13 0 -29 -8 -38 -8
-9 -15 -29 -15 -45 0 -24 -2 -26 -16 -14 -14 11 -19 10 -35 -9 -16 -21 -21
-22 -41 -10 -13 7 -30 13 -38 13 -29 0 -22 35 10 53 18 9 51 29 74 44 50 34
62 35 69 6z m1503 -84 c-7 -54 -12 -64 -32 -64 -16 0 -13 34 7 88 16 41 32 26
25 -24z m-23 -114 c-6 -24 -26 -21 -31 3 -2 11 3 17 16 17 15 0 19 -5 15 -20z
m-2663 -31 c0 -5 -7 -12 -15 -15 -19 -8 -19 -43 0 -68 8 -11 15 -29 15 -39 0
-19 -1 -19 -18 -4 -10 10 -26 17 -35 17 -9 0 -19 5 -22 10 -3 6 -20 10 -36 10
-22 0 -32 -7 -41 -25 -12 -27 -24 -32 -30 -13 -8 24 -38 -1 -38 -32 0 -35 -9
-38 -33 -10 -20 24 -30 25 -47 5 -7 -8 -16 -15 -21 -15 -15 0 -10 29 7 38 9 5
14 11 12 13 -5 8 45 64 74 83 45 30 191 74 211 64 9 -5 17 -13 17 -19z m781
-31 c5 -19 3 -28 -8 -32 -9 -4 -14 -17 -13 -33 5 -66 4 -67 -36 -44 -39 23
-54 20 -54 -10 0 -23 -9 -24 -36 -5 -11 9 -30 12 -46 9 -25 -5 -28 -2 -28 20
0 29 34 57 90 76 19 6 49 20 65 31 38 26 57 22 66 -12z m1848 -20 c-19 -50
-65 -101 -81 -91 -14 8 -9 25 16 57 13 17 26 41 30 53 4 12 17 24 29 26 12 2
23 5 24 6 2 0 -7 -23 -18 -51z m-2511 -33 c50 -47 131 -160 121 -169 -2 -1
-38 -21 -79 -44 l-75 -41 -35 52 c-19 29 -33 57 -31 62 1 6 -1 7 -5 3 -3 -4
-18 2 -32 12 -13 11 -32 20 -42 20 -30 0 -70 -39 -70 -69 0 -33 297 -522 353
-581 29 -31 45 -40 70 -40 18 0 38 -5 45 -12 9 -9 12 -8 12 7 -1 46 -39 177
-63 218 -15 25 -27 48 -27 51 0 12 66 5 84 -9 32 -24 49 -19 42 12 -7 26 10
83 24 83 14 0 90 -166 96 -210 13 -95 -41 -186 -138 -234 -64 -32 -104 -33
-133 -3 -30 30 -70 62 -71 57 -1 -3 -10 2 -20 11 -11 9 -35 23 -55 32 -19 9
-42 24 -50 34 -26 29 -275 434 -305 493 -32 64 -44 148 -23 161 20 12 22 12
48 -12 19 -18 25 -19 32 -8 5 8 7 24 4 37 -4 17 -1 22 14 22 11 0 23 -4 26
-10 9 -15 35 -12 29 3 -2 7 2 21 9 32 13 17 18 17 47 5 17 -7 47 -24 66 -36
l34 -23 0 37 c0 21 -7 47 -15 58 -18 23 -19 51 -3 56 28 10 63 -8 116 -57z
m1230 -72 c2 -13 -4 -33 -12 -45 -9 -12 -16 -33 -16 -47 0 -23 -1 -24 -20 -6
-25 23 -50 13 -50 -22 l0 -27 -30 29 c-49 47 -36 77 55 132 31 20 69 12 73
-14z m-1762 -37 c18 -18 36 -31 39 -28 3 3 5 -8 5 -24 l0 -29 -19 31 c-48 79
-110 84 -184 15 -25 -23 -28 -32 -26 -83 3 -81 -7 -82 -15 -2 -7 64 -6 68 21
97 61 65 128 74 179 23z m-30 -41 c11 -17 14 -36 10 -55 -3 -17 -1 -42 4 -56
6 -14 12 -41 14 -60 4 -33 24 -69 33 -60 2 2 -5 31 -17 65 -22 65 -26 105 -10
99 8 -3 276 -417 287 -444 2 -7 -15 -16 -41 -23 -25 -6 -48 -15 -51 -21 -3 -5
-10 -10 -15 -10 -9 0 -82 115 -80 126 1 4 -3 10 -8 13 -8 5 -123 179 -182 276
l-24 40 44 -37 c42 -37 60 -46 60 -30 -1 8 -71 61 -113 83 -45 24 -51 44 -24
71 24 24 63 46 84 47 7 1 20 -10 29 -24z m-868 -195 c9 0 48 9 86 20 61 17 78
18 140 8 83 -13 100 -23 55 -32 -37 -7 -69 -32 -69 -53 0 -11 18 -14 88 -12
96 2 179 -21 230 -67 l27 -23 -27 -1 c-43 0 -35 -31 22 -83 52 -48 54 -54 50
-124 -2 -46 8 -53 32 -25 20 21 40 92 27 92 -5 0 -9 6 -9 14 0 7 -10 26 -22
42 -19 23 -20 27 -5 21 11 -4 20 -1 23 8 9 23 23 8 53 -54 15 -31 35 -69 45
-84 10 -15 16 -30 13 -34 -4 -3 -2 -14 4 -25 8 -15 7 -24 -7 -39 -17 -19 -17
-20 1 -13 14 6 16 4 10 -6 -5 -9 -4 -11 3 -6 12 7 10 54 -2 75 -4 6 -5 11 -2
11 11 0 33 -55 28 -69 -2 -8 0 -11 5 -8 13 8 78 -117 69 -132 -4 -6 0 -14 8
-17 14 -5 13 -11 -6 -42 -12 -19 -17 -32 -11 -29 13 8 6 -31 -9 -50 -5 -7 -7
-17 -3 -23 3 -5 3 -16 -2 -22 -4 -7 -9 -23 -11 -36 -8 -62 -14 -64 -58 -23
-32 31 -50 40 -90 44 -27 3 -63 7 -81 9 -19 2 -29 0 -26 -6 4 -5 -2 -7 -13 -3
-100 31 -134 39 -163 37 -19 0 -42 7 -54 17 -11 10 -17 12 -13 6 4 -8 1 -13
-9 -13 -10 0 -13 5 -9 12 5 8 2 9 -9 5 -26 -10 -20 7 6 18 14 6 22 19 22 33 0
20 -10 27 -65 45 -36 12 -66 24 -68 27 -1 3 -30 4 -63 2 -57 -4 -77 0 -134 31
-11 6 -37 19 -57 29 -49 24 -56 38 -17 33 18 -3 34 -6 36 -9 8 -8 63 15 63 27
0 5 -28 38 -62 71 -61 59 -73 77 -137 220 -34 76 -38 96 -17 96 16 0 55 58 71
105 6 16 28 41 50 56 l40 28 3 -40 c2 -29 8 -39 20 -39z m2796 44 c3 -8 2 -12
-4 -9 -6 3 -10 10 -10 16 0 14 7 11 14 -7z m24 -15 c-3 -8 -7 -3 -11 10 -4 17
-3 21 5 13 5 -5 8 -16 6 -23z m-532 7 c3 -7 -2 -30 -10 -51 -9 -21 -16 -52
-16 -69 -1 -26 -2 -28 -11 -13 -9 15 -20 17 -76 12 -98 -7 -127 27 -55 64 21
11 45 27 52 36 28 34 106 48 116 21z m-1543 -56 c7 -9 2 -5 -10 8 -13 13 -23
31 -22 40 0 11 4 9 10 -8 6 -13 15 -32 22 -40z m977 -35 c0 -3 -11 -24 -25
-46 -16 -25 -24 -47 -20 -60 8 -23 2 -24 -31 -3 -18 12 -37 15 -69 11 -53 -8
-65 5 -30 30 15 10 38 28 53 39 15 12 36 24 47 27 28 7 75 8 75 2z m-760 -289
c-1 -5 2 -12 7 -15 4 -3 14 -14 22 -24 12 -15 12 -17 -2 -11 -14 5 -27 26 -26
40 0 4 -5 11 -13 16 -11 8 -11 9 0 6 8 -2 13 -7 12 -12z m654 -11 c3 -8 3 -21
0 -29 -3 -8 -1 -17 5 -21 18 -11 12 -22 -11 -20 -28 2 -83 66 -65 77 21 13 65
9 71 -7z m-384 -25 c0 -5 -4 -10 -10 -10 -5 0 -10 5 -10 10 0 6 5 10 10 10 6
0 10 -4 10 -10z m-97 -30 c-5 -18 0 -19 70 -17 65 2 83 -2 129 -25 29 -15 67
-32 84 -38 17 -6 37 -22 44 -36 8 -13 19 -24 25 -24 7 0 20 -10 31 -22 19 -21
19 -21 -1 -14 -49 18 -85 19 -91 1 -5 -12 6 -29 38 -60 45 -42 137 -200 152
-259 l7 -28 -35 28 c-30 25 -41 29 -85 26 -57 -4 -64 -15 -24 -34 21 -10 31
-28 48 -83 12 -38 28 -81 35 -95 8 -14 14 -27 13 -31 -1 -3 -4 -31 -7 -63 -6
-77 -21 -92 -31 -30 -7 52 -24 94 -37 94 -4 0 -7 5 -6 11 2 6 -6 13 -17 14
-11 1 -25 4 -31 6 -19 6 -17 -8 6 -56 23 -48 24 -45 -25 -123 -24 -38 -34 -41
-28 -8 3 13 0 27 -6 30 -13 9 -12 -43 2 -61 7 -9 4 -13 -11 -13 -11 0 -22 -7
-26 -15 -3 -8 -16 -15 -28 -15 -43 0 -68 -12 -68 -31 0 -21 39 -41 55 -29 6 4
31 8 58 9 76 3 84 5 83 20 -1 8 7 17 16 19 16 3 16 1 2 -28 -14 -26 -18 -29
-32 -18 -15 10 -15 10 0 -7 16 -17 16 -20 -3 -47 -11 -15 -25 -26 -30 -23 -5
4 -6 -2 -2 -12 6 -16 5 -16 -10 -4 -15 12 -17 12 -11 -3 9 -23 -26 -101 -38
-84 -5 9 -8 7 -9 -7 -1 -11 -1 -23 0 -27 0 -5 -4 -8 -9 -8 -5 0 -9 -6 -7 -12
1 -7 -4 -12 -10 -11 -7 2 -12 0 -12 -5 4 -23 -3 -34 -17 -28 -9 3 -12 2 -9 -4
7 -12 -34 -84 -43 -75 -7 6 -13 31 -15 58 -1 14 -9 17 -39 15 -21 -2 -36 -7
-34 -13 2 -5 -2 -19 -7 -30 -6 -11 -12 -25 -13 -32 -7 -44 -37 -112 -46 -107
-7 4 -8 2 -4 -4 8 -14 -12 -55 -23 -48 -4 3 -6 -6 -3 -20 4 -24 2 -26 -19 -19
-33 10 -82 40 -104 65 -10 11 -23 20 -29 20 -7 0 -29 17 -51 38 -21 20 -35 31
-31 24 4 -7 -13 0 -38 15 -24 15 -42 31 -39 37 3 5 1 6 -4 3 -6 -4 -36 6 -67
20 -55 27 -70 43 -41 43 19 0 55 39 49 54 -2 6 -20 20 -39 30 -23 13 -38 30
-46 55 -6 20 -17 41 -24 46 -6 6 -14 32 -17 58 -4 35 -3 46 5 38 25 -25 55 -9
47 24 -1 6 -5 48 -10 95 -5 65 -3 94 8 124 15 37 16 38 54 32 32 -5 40 -3 46
13 4 10 32 39 63 64 68 56 93 104 123 239 40 175 101 301 186 382 32 31 61 56
63 56 3 0 3 -9 0 -20z m-118 -10 c3 -5 2 -10 -4 -10 -5 0 -13 5 -16 10 -3 6
-2 10 4 10 5 0 13 -4 16 -10z m6830 -20 c-14 -16 -20 -17 -27 -8 -13 22 -9 28
19 28 26 0 26 0 8 -20z m90 -127 c17 -2 39 -9 50 -13 11 -5 49 -21 85 -35 88
-35 186 -94 249 -151 l53 -47 -64 -24 c-35 -13 -79 -32 -99 -43 -20 -11 -50
-20 -67 -20 -22 0 -46 -13 -83 -45 -29 -25 -56 -45 -61 -45 -13 0 -129 -152
-125 -164 2 -7 47 -11 138 -11 l134 0 85 -46 c47 -25 99 -51 115 -57 18 -6 23
-11 12 -11 -10 -1 -50 13 -89 29 -38 17 -72 30 -74 30 -2 0 12 -22 31 -49 39
-54 42 -67 20 -98 -13 -19 -3 -16 75 19 87 40 109 57 73 59 -10 0 -13 3 -7 5
6 2 26 -2 44 -10 l34 -14 -30 -14 c-16 -8 -62 -28 -103 -43 -57 -22 -86 -40
-125 -80 -62 -62 -117 -105 -173 -134 -44 -22 -143 -131 -143 -157 0 -22 37
-17 78 11 44 30 123 34 180 8 44 -19 40 -18 77 -27 17 -4 44 -14 62 -22 17 -8
44 -14 60 -15 15 0 37 -5 48 -10 14 -6 8 -7 -22 -3 -24 3 -43 3 -43 -1 0 -4
18 -27 39 -52 22 -25 37 -51 34 -59 -3 -7 -21 -23 -40 -35 -19 -12 -32 -23
-30 -25 2 -2 36 5 75 16 39 11 92 20 117 20 25 0 45 3 45 8 0 4 -24 29 -52 55
l-53 48 45 -29 c25 -17 58 -44 74 -61 l30 -31 -46 0 c-75 0 -239 -39 -293 -70
-28 -16 -83 -36 -122 -44 -40 -8 -89 -23 -110 -32 -47 -22 -165 -141 -218
-220 -21 -32 -46 -65 -54 -71 -33 -28 -158 -6 -146 26 42 102 89 236 106 304
l21 85 -26 143 c-25 135 -53 249 -77 310 -8 21 -7 34 5 57 9 17 24 68 33 114
17 80 19 83 48 86 66 8 85 63 85 252 l0 118 34 41 c52 62 56 131 19 270 -5 21
-4 23 13 17 10 -4 33 -10 49 -13z m-6162 -269 c3 -3 3 -12 0 -20 -4 -11 -15
-13 -41 -8 -29 6 -34 4 -29 -8 6 -17 -18 -58 -34 -58 -5 0 -9 14 -9 30 0 17 5
30 12 30 6 0 8 3 4 8 -4 4 9 12 31 19 45 14 58 15 66 7z m6624 -38 c-7 -17
-77 -27 -77 -11 0 14 48 37 61 30 5 -4 9 0 10 7 0 10 2 10 6 0 3 -7 3 -19 0
-26z m-5787 -31 c0 -17 -36 -39 -44 -27 -7 12 23 53 35 47 5 -4 9 -13 9 -20z
m5670 11 c0 -2 -16 -13 -35 -25 -19 -11 -35 -16 -35 -11 0 5 12 16 28 24 27
15 42 19 42 12z m-6407 -26 c-3 -12 0 -21 8 -24 46 -14 47 -15 42 -37 -7 -26
-67 -63 -100 -62 -53 2 -55 3 -49 18 3 9 0 15 -9 15 -23 0 -18 -38 6 -51 15
-8 19 -8 15 0 -4 6 -3 11 3 11 5 0 13 -4 16 -10 3 -5 20 -7 37 -3 22 4 29 3
24 -5 -4 -7 -16 -12 -26 -12 -26 0 -50 -10 -50 -22 0 -5 8 -8 18 -6 26 5 21
-25 -8 -39 -34 -17 -72 -16 -120 3 -40 16 -43 21 -53 87 -4 23 -1 27 20 27 21
0 24 4 19 23 -6 26 -7 26 73 28 44 1 50 4 56 28 10 38 24 51 55 51 23 0 27 -4
23 -20z m1257 2 c0 -28 -28 -60 -38 -45 -6 10 -12 10 -27 -1 -18 -13 -18 -14
3 -40 11 -15 23 -26 25 -24 12 8 47 -38 47 -62 0 -15 7 -33 15 -40 8 -7 15
-22 15 -34 0 -40 15 -50 34 -22 9 14 23 26 30 26 14 0 61 -69 52 -77 -2 -3
-12 9 -21 26 -20 39 -36 39 -58 1 -10 -16 -22 -30 -27 -30 -5 0 -7 -6 -4 -14
4 -10 -2 -16 -18 -18 -16 -2 -23 -9 -22 -24 0 -16 -4 -20 -18 -16 -12 3 -21
-3 -27 -19 -8 -21 -16 -12 -12 14 2 11 -17 9 -24 -3 -3 -5 -11 -10 -18 -10 -6
0 -1 7 11 16 12 8 22 25 22 37 0 18 2 19 11 7 8 -11 12 -12 16 -2 2 6 13 12
24 12 12 0 19 7 19 19 0 10 6 21 13 24 21 8 9 75 -15 83 -15 4 -18 12 -13 33
7 31 -15 57 -40 47 -10 -4 -15 1 -15 14 0 11 -6 20 -14 20 -8 0 -16 15 -19 38
-3 20 -7 44 -9 52 -3 8 -3 12 -1 8 3 -5 13 -8 24 -8 10 0 19 -4 19 -9 0 -15
45 -7 46 9 3 26 4 30 9 30 3 0 5 -8 5 -18z m5050 -26 c0 -9 -16 -17 -42 -21
-29 -5 -51 -16 -65 -34 -12 -14 -22 -21 -23 -15 0 22 85 84 118 84 6 0 12 -6
12 -14z m-5640 -1 c0 -2 -10 -9 -22 -15 -22 -11 -22 -10 -4 4 21 17 26 19 26
11z m104 -10 c4 -11 -2 -15 -22 -17 -15 0 -36 -2 -47 -2 -24 -2 -45 -14 -45
-27 0 -6 7 -6 19 0 11 7 35 7 62 2 27 -5 35 -10 22 -11 -35 -4 -35 -4 -75 -23
-43 -20 -83 -71 -74 -94 4 -9 -2 -23 -14 -33 -11 -9 -16 -21 -12 -25 4 -5 2
-5 -4 -2 -16 9 -12 151 5 171 7 9 18 13 23 10 5 -3 22 5 37 20 21 21 63 37
112 45 4 1 9 -6 13 -14z m5342 -144 c-4 -6 -16 -11 -27 -11 -18 0 -18 1 -1 19
17 18 40 12 28 -8z m-5298 -118 c2 -20 6 -41 9 -47 3 -6 0 -5 -8 2 -7 6 -21
12 -31 12 -10 0 -18 4 -18 9 0 7 38 61 44 61 1 0 3 -16 4 -37z m-1052 -63 c15
-22 25 -42 23 -43 -36 -28 -71 -48 -76 -43 -3 3 -1 23 5 45 7 21 12 48 12 60
0 30 6 27 36 -19z m214 20 c0 -5 -12 -10 -27 -9 -25 0 -26 1 -8 9 27 12 35 12
35 0z m1450 -30 c0 -21 -6 -43 -13 -47 -7 -4 -20 -20 -30 -35 -18 -29 -41 -36
-53 -17 -3 6 -1 16 6 22 10 9 11 9 6 0 -5 -8 -1 -13 10 -13 10 0 15 3 12 6 -3
3 7 20 24 37 22 24 28 38 24 60 -3 15 -1 27 4 27 6 0 10 -18 10 -40z m-1465
-16 c14 -6 14 -9 -5 -29 -34 -36 -23 -57 37 -70 61 -14 151 -70 183 -114 12
-17 18 -31 14 -31 -3 0 -1 -6 5 -14 8 -10 9 -16 1 -21 -5 -3 -10 -2 -10 3 0 6
-12 13 -26 16 -18 5 -24 11 -20 23 5 12 4 13 -7 5 -10 -9 -19 -7 -36 4 -15 11
-33 14 -56 10 -45 -9 -37 -30 25 -61 50 -26 100 -82 100 -113 0 -11 5 -22 10
-24 11 -3 20 -32 27 -92 4 -27 2 -37 -6 -32 -7 5 -11 -3 -11 -21 0 -22 2 -25
11 -13 8 11 9 9 4 -10 -4 -14 -12 -29 -17 -35 -6 -6 -7 -4 -3 8 4 9 3 17 -2
17 -5 0 -17 14 -27 32 -18 29 -18 32 -2 43 18 14 22 45 5 45 -6 0 -9 7 -5 15
4 13 2 14 -14 5 -11 -6 -20 -13 -20 -16 0 -3 5 -2 10 1 6 3 13 -1 16 -10 4
-10 -5 -26 -25 -45 -17 -17 -31 -33 -31 -35 0 -3 9 -24 20 -45 12 -23 16 -40
10 -40 -6 0 -9 -4 -5 -9 10 -17 -15 -23 -31 -7 -8 9 -17 16 -20 16 -2 0 -25
-20 -50 -44 -40 -39 -52 -45 -104 -51 -32 -4 -68 -4 -79 0 -25 7 -39 -18 -23
-38 8 -10 5 -13 -14 -15 -13 -1 -24 3 -24 8 0 7 -7 7 -20 0 -26 -14 -25 -30 4
-61 13 -14 26 -34 27 -45 2 -11 22 -28 47 -39 38 -17 43 -24 40 -46 -3 -19 0
-25 9 -22 20 8 15 -5 -6 -17 -31 -16 -94 -24 -86 -10 4 7 -4 4 -19 -5 -47 -31
-29 -55 41 -55 32 0 33 -1 18 -17 -16 -15 -16 -17 1 -26 19 -11 104 -15 104
-5 0 3 -3 8 -7 11 -5 2 -2 2 5 1 6 -2 12 4 12 12 0 8 5 12 10 9 6 -3 10 -1 10
4 0 6 5 11 10 11 17 0 11 -18 -12 -41 -15 -14 -17 -20 -7 -17 12 5 14 0 11
-23 -3 -23 0 -31 19 -38 20 -7 25 -5 29 12 3 11 12 23 19 25 8 3 11 0 7 -6 -4
-6 0 -24 8 -40 8 -16 13 -32 10 -35 -3 -3 -1 -8 5 -12 6 -3 11 2 12 12 1 28
20 -26 21 -59 1 -29 16 -32 35 -8 10 13 13 10 23 -15 6 -16 15 -32 19 -35 15
-10 78 -135 74 -147 -2 -6 1 -15 8 -19 8 -5 10 -2 5 7 -4 8 -1 6 6 -5 44 -63
56 -86 48 -86 -6 0 -10 3 -10 8 0 4 -19 7 -42 6 -24 -1 -46 4 -50 10 -5 8 -8
7 -8 -1 0 -7 -7 -13 -15 -13 -8 0 -15 5 -15 11 0 6 -6 9 -12 6 -7 -2 -23 0
-36 4 -17 7 -21 6 -16 -3 5 -7 3 -8 -6 -3 -18 11 -136 8 -194 -5 -26 -6 -52
-8 -57 -5 -16 10 -10 23 14 31 21 7 21 7 2 15 l-20 8 20 1 c18 1 17 3 -5 12
-14 6 -29 10 -35 9 -5 0 3 10 19 23 16 13 25 29 22 35 -10 15 -21 14 -67 -8
-39 -19 -40 -19 -150 2 -61 12 -107 25 -104 29 4 4 -2 4 -14 1 -12 -3 -21 -1
-21 6 0 6 -7 8 -17 4 -12 -5 -14 -3 -8 7 6 10 4 12 -8 7 -20 -8 -69 12 -61 24
3 5 -2 6 -10 3 -11 -4 -16 0 -16 11 0 9 -4 14 -8 11 -4 -2 -9 7 -10 21 -1 14
-16 42 -32 62 -17 20 -34 41 -38 46 -33 43 -108 218 -117 272 -6 36 -4 42 14
48 12 3 21 13 21 21 0 8 5 14 10 14 6 0 10 42 10 105 0 59 6 123 13 147 8 24
22 69 31 102 17 55 18 57 32 37 20 -27 57 -27 88 2 36 32 135 175 157 226 11
24 31 57 44 73 14 16 25 35 25 42 0 7 6 20 13 31 13 17 14 16 13 -6 -1 -19 5
-25 25 -27 20 -2 34 5 55 31 35 41 129 109 138 100 3 -3 6 -1 6 5 0 17 54 27
85 16z m1080 -84 c3 -6 -1 -7 -9 -4 -18 7 -21 14 -7 14 6 0 13 -4 16 -10z
m4655 -131 c0 -11 -4 -17 -10 -14 -5 3 -10 13 -10 21 0 8 5 14 10 14 6 0 10
-9 10 -21z m81 -334 c1 -73 -6 -119 -35 -240 -40 -167 -63 -235 -78 -235 -6 0
-7 7 -3 18 39 91 76 351 83 582 l6 185 12 -110 c8 -60 14 -150 15 -200z
m-4855 -5 c4 0 -1 9 -11 20 -10 11 -15 20 -11 20 7 0 84 -59 114 -87 7 -7 18
-13 23 -13 5 0 9 -4 9 -10 0 -5 -8 -7 -17 -3 -16 6 -15 3 2 -17 l20 -23 -21
11 c-12 6 -39 26 -61 44 -22 18 -59 47 -81 63 -23 17 -42 34 -42 39 0 4 15 -3
34 -18 19 -14 38 -26 42 -26z m-11 -50 c53 -41 110 -85 127 -97 17 -13 25 -23
18 -23 -8 0 -45 26 -84 58 -39 31 -95 75 -123 96 -50 35 -66 52 -43 44 5 -1
52 -37 105 -78z m-170 21 c-3 -6 -14 -11 -23 -11 -15 1 -15 2 2 15 21 16 32
13 21 -4z m-455 -23 c0 -5 -4 -8 -10 -8 -5 0 -10 10 -10 23 0 18 2 19 10 7 5
-8 10 -18 10 -22z m207 -107 c40 -31 72 -60 73 -64 0 -5 -24 10 -52 33 -29 23
-85 68 -125 99 -40 31 -72 60 -73 64 0 5 24 -10 53 -33 28 -23 84 -68 124 -99z
m27 27 c52 -40 92 -75 90 -77 -3 -4 -35 20 -168 123 -28 22 -43 36 -33 33 10
-4 60 -39 111 -79z m121 42 c-17 -19 -35 -19 -35 2 0 5 7 8 15 5 8 -4 17 -2
20 3 4 6 9 10 12 10 3 0 -2 -9 -12 -20z m122 14 c-3 -3 -12 -4 -19 -1 -8 3 -5
6 6 6 11 1 17 -2 13 -5z m43 -39 c14 -17 35 -21 25 -5 -3 6 -2 10 3 10 6 0 12
-7 16 -15 3 -8 1 -15 -4 -15 -6 0 -10 -8 -10 -18 0 -10 -8 -27 -17 -39 -16
-20 -18 -20 -49 -3 -17 10 -42 20 -55 22 -37 5 -35 34 3 58 39 24 71 26 88 5z
m-495 -15 c3 -11 13 -20 22 -20 10 0 13 -6 9 -16 -3 -9 -6 -29 -6 -45 0 -22
-5 -29 -18 -29 -14 0 -74 23 -88 34 -1 1 -5 12 -9 26 -4 14 -4 22 0 18 11 -10
65 23 65 39 0 20 18 15 25 -7z m6460 8 c4 4 6 0 3 -8 -4 -12 -30 -16 -124 -20
-109 -6 -174 -20 -174 -41 0 -14 -86 -52 -148 -65 -35 -8 -83 -25 -108 -39
-25 -14 -43 -21 -39 -15 3 5 -3 10 -15 10 -15 0 -22 -8 -26 -30 -7 -32 -39
-49 -58 -30 -19 20 75 95 143 114 133 36 164 46 175 55 39 32 326 89 352 69 6
-4 14 -4 19 0z m-6615 -100 c0 -6 -6 -5 -15 2 -8 7 -15 14 -15 16 0 2 7 1 15
-2 8 -4 15 -11 15 -16z m524 -33 c11 -8 17 -17 15 -20 -3 -2 -21 9 -40 26 -33
29 -14 25 25 -6z m376 31 c0 -11 -19 -15 -25 -6 -3 5 1 10 9 10 9 0 16 -2 16
-4z m-420 -52 c0 -9 -37 15 -51 33 -10 12 -5 11 19 -6 17 -12 32 -24 32 -27z
m448 16 c-7 -10 -14 -17 -17 -15 -4 4 18 35 25 35 2 0 -1 -9 -8 -20z m-877 -7
c13 -16 12 -17 -3 -4 -17 13 -22 21 -14 21 2 0 10 -8 17 -17z m764 7 c3 -6 -1
-7 -9 -4 -18 7 -21 14 -7 14 6 0 13 -4 16 -10z m-84 -56 c-5 -21 -9 -30 -10
-19 -1 24 10 67 15 62 3 -2 0 -22 -5 -43z m-926 -14 c3 -6 -1 -7 -9 -4 -18 7
-21 14 -7 14 6 0 13 -4 16 -10z m525 -14 c0 -2 -9 -6 -20 -9 -11 -3 -18 -1
-14 4 5 9 34 13 34 5z m5146 -169 c82 -47 108 -57 171 -63 60 -6 82 -2 169 24
54 17 118 34 142 38 38 6 42 5 42 -14 0 -11 14 -58 31 -105 26 -71 41 -96 90
-146 32 -33 66 -75 75 -93 9 -18 22 -40 29 -48 14 -17 111 -252 132 -320 8
-25 20 -75 27 -112 13 -63 12 -68 -5 -73 -23 -8 -22 0 -19 -167 3 -154 1 -157
-59 -110 -70 53 -152 102 -171 102 -25 0 -25 -16 0 -72 29 -67 44 -260 31
-414 -6 -67 -15 -134 -21 -149 -5 -14 -10 -52 -10 -84 0 -32 -3 -60 -6 -64
-11 -11 -66 18 -139 71 -39 28 -82 54 -97 57 -28 7 -26 10 -48 -74 -15 -59
-33 -84 -75 -107 l-35 -19 0 -75 c0 -80 -55 -332 -85 -391 l-16 -29 -82 71
c-45 39 -110 85 -145 102 l-63 30 -34 -34 c-39 -41 -103 -198 -164 -405 -23
-77 -50 -157 -60 -177 -18 -35 -19 -36 -35 -18 -10 11 -61 37 -114 59 -137 56
-290 85 -533 98 -117 6 -126 5 -133 -12 -4 -10 -8 -93 -10 -184 -2 -106 -9
-192 -20 -240 -25 -112 -66 -252 -82 -278 l-15 -23 -38 48 c-49 63 -130 136
-211 189 -36 24 -85 60 -110 79 -51 39 -292 165 -317 165 -13 0 -15 -8 -9 -53
3 -28 15 -81 26 -116 22 -72 24 -64 -55 -152 -49 -55 -71 -52 -84 11 -6 28
-11 63 -11 78 0 15 -13 54 -29 88 -16 33 -32 72 -36 85 -4 13 -29 56 -55 96
-32 49 -44 75 -37 82 25 25 137 -214 176 -379 22 -90 24 -95 40 -85 43 26 -63
330 -167 481 -57 83 -133 166 -200 217 -59 44 -175 107 -199 107 -7 0 -13 4
-13 9 0 5 60 23 133 41 245 61 456 131 572 191 22 12 69 32 104 45 36 13 70
29 76 34 6 5 30 16 51 24 64 22 321 163 429 235 55 36 137 101 183 143 45 43
90 78 99 78 9 0 54 -38 101 -84 78 -78 83 -85 70 -106 -12 -20 -10 -24 12 -38
13 -10 38 -29 55 -43 16 -14 40 -32 53 -38 19 -10 21 -15 11 -27 -15 -18 -7
-26 49 -47 51 -20 183 -22 227 -3 24 10 34 10 55 -1 28 -14 54 -9 90 19 l25
20 5 -24 c13 -54 68 -25 135 72 27 39 30 51 30 121 0 75 -1 79 -43 138 -40 58
-41 61 -20 61 13 0 41 9 63 19 36 16 41 16 51 2 10 -13 15 -13 40 3 39 25 84
77 84 98 0 9 5 20 10 23 6 4 10 -5 10 -19 0 -21 5 -26 24 -26 20 0 25 6 30 38
18 107 18 143 2 185 -16 42 -112 154 -151 175 -17 10 -18 13 -5 21 8 5 17 8
20 6 3 -2 7 7 8 20 2 27 -12 41 -63 58 l-38 13 58 21 c50 19 60 20 72 7 20
-20 36 -18 61 9 25 26 92 152 92 173 0 18 9 18 32 -2 17 -16 19 -14 45 42 24
52 28 71 28 161 0 102 2 106 37 75 29 -24 35 -10 23 52 -9 43 -20 66 -39 82
-14 13 -26 27 -26 32 0 17 -35 39 -71 46 -21 4 -55 0 -85 -9 -64 -19 -65 -19
-58 10 5 21 3 25 -16 25 -12 0 -39 -13 -60 -30 -65 -51 -114 -63 -123 -29 -5
18 -10 20 -38 14 -32 -7 -32 -7 -25 26 4 19 9 80 12 137 4 98 5 104 39 148 19
25 35 49 35 54 0 15 31 40 48 40 9 0 27 -6 38 -13z m-6467 -92 c7 -19 35 -62
63 -95 l50 -60 -31 -6 c-39 -8 -40 -23 -1 -37 17 -6 30 -14 30 -17 0 -3 -19
-18 -41 -35 -22 -16 -49 -44 -60 -61 -12 -20 -35 -38 -64 -48 -25 -10 -45 -22
-45 -27 0 -5 -7 -9 -15 -9 -8 0 -15 6 -15 13 0 38 101 282 124 298 4 4 -6 17
-23 30 -36 26 -37 31 -15 64 22 33 28 32 43 -10z m196 -288 c17 -8 67 -22 112
-32 l81 -18 -19 -31 c-28 -45 -25 -138 6 -227 13 -40 22 -76 18 -82 -3 -6 -1
-7 5 -3 18 11 39 -41 24 -56 -7 -7 -12 -19 -12 -29 0 -14 -6 -13 -47 8 -40 20
-57 24 -103 19 -77 -7 -122 -29 -181 -85 -48 -46 -50 -47 -55 -24 -4 13 -4 27
0 30 3 4 6 -2 6 -12 0 -13 10 -8 45 24 25 23 56 47 70 53 l26 12 -48 48 -48
48 -5 88 -5 87 -22 -100 c-33 -147 -33 -147 -28 -60 3 44 14 114 25 155 11 41
20 94 20 117 0 34 6 47 36 77 32 32 39 35 53 23 9 -8 30 -21 46 -30z m6552
-74 c39 -45 42 -60 9 -38 -20 13 -29 14 -46 5 -20 -11 -20 -13 -6 -29 35 -39
49 -157 25 -204 l-12 -22 -10 22 c-12 27 -54 50 -67 37 -11 -11 -2 -77 9 -70
3 2 -5 -31 -19 -75 -22 -68 -27 -77 -37 -62 -7 9 -13 22 -13 27 0 6 4 5 9 -2
6 -11 10 -10 15 4 4 9 2 22 -4 28 -8 8 -9 6 -5 -6 6 -14 1 -16 -24 -12 -26 4
-33 1 -40 -19 -5 -14 -8 -38 -5 -54 4 -24 0 -32 -21 -41 -14 -6 -25 -8 -25 -3
0 27 -45 19 -90 -16 -20 -15 -73 -11 -94 6 -24 20 -43 56 -24 46 7 -3 4 1 -6
9 -11 9 -26 16 -33 16 -18 0 -83 32 -83 42 0 4 -6 5 -14 2 -8 -3 -17 0 -22 7
-4 8 -3 10 4 5 7 -4 12 -3 12 3 0 5 3 16 6 25 3 9 1 16 -6 16 -6 0 -8 -4 -5
-10 3 -6 -1 -7 -10 -4 -13 5 -13 8 -2 18 8 6 17 20 21 31 4 11 4 16 0 12 -4
-4 -13 -2 -19 3 -13 11 -105 16 -140 8 -11 -3 -33 -10 -48 -17 -50 -20 -53
-17 -34 35 11 29 141 181 136 159 -1 -5 1 -18 5 -27 7 -16 11 -16 34 -4 15 8
36 24 47 36 11 12 38 31 60 42 22 12 59 34 82 49 39 27 42 28 48 10 5 -16 12
-19 43 -14 20 3 63 15 94 28 46 18 58 20 62 9 7 -19 45 -17 86 6 19 11 55 19
80 20 39 0 48 -4 77 -37z m-4697 0 c0 -5 -5 -15 -10 -23 -8 -12 -10 -11 -10 8
0 12 5 22 10 22 6 0 10 -3 10 -7z m-2078 -67 l-30 -34 -10 23 c-10 21 -7 26
26 48 48 32 56 11 14 -37z m1946 -4 c-26 -33 -36 -41 -43 -34 -5 4 -5 -2 -1
-13 4 -11 4 -16 0 -13 -3 4 -17 -6 -31 -23 -14 -16 -30 -26 -35 -22 -6 3 -8 1
-4 -5 14 -23 -111 -95 -229 -131 -38 -12 -90 -31 -113 -43 -30 -14 -71 -22
-132 -26 l-89 -5 -3 54 c-3 51 -5 54 -31 57 -27 3 -28 2 -22 -30 4 -22 0 -48
-13 -78 -19 -44 -20 -44 -29 -20 -5 14 -9 41 -7 62 1 28 -4 42 -25 61 -35 33
-53 37 -82 21 -13 -7 -20 -13 -16 -14 5 0 18 5 30 12 20 10 21 10 8 -5 -11
-14 -11 -17 -1 -17 8 0 11 -2 9 -5 -8 -8 -79 15 -79 26 0 6 -4 8 -9 4 -19 -11
-23 18 -5 33 20 15 15 15 -31 -4 -8 -3 -15 -1 -15 6 0 6 -4 8 -10 5 -5 -3 -10
0 -10 7 0 7 -8 18 -19 25 -21 13 -34 50 -20 59 5 3 9 -1 9 -8 0 -8 7 -23 16
-34 8 -10 13 -13 9 -6 -3 6 1 20 10 29 14 14 31 15 123 9 59 -4 113 -8 120 -9
6 0 12 -4 12 -9 0 -5 5 -6 10 -3 6 3 10 1 10 -5 0 -6 5 -8 10 -5 6 3 10 2 10
-2 0 -5 16 -7 35 -5 19 2 43 1 52 -3 27 -11 71 -15 141 -14 109 2 132 4 132
13 0 5 8 2 18 -5 9 -7 14 -9 10 -5 -4 5 -3 15 3 23 10 11 15 11 27 1 11 -9 14
-10 9 -1 -9 14 27 41 61 46 12 2 25 6 28 10 11 11 26 8 19 -3 -3 -6 1 -7 9 -4
9 3 16 10 16 14 0 13 54 19 62 7 5 -8 8 -6 8 6 0 11 8 17 24 17 14 0 27 4 30
8 2 4 14 8 26 9 19 2 20 0 8 -15z m-2017 -28 c14 -38 3 -41 -16 -5 -9 18 -11
31 -5 31 6 0 15 -12 21 -26z m990 -47 c-10 -9 -11 -8 -5 6 3 10 9 15 12 12 3
-3 0 -11 -7 -18z m5113 -222 c-31 -40 -26 -65 12 -65 78 0 192 -59 256 -133
27 -32 73 -71 101 -87 l51 -29 -42 -7 c-58 -9 -53 -28 17 -63 64 -33 143 -113
167 -169 21 -50 18 -59 -15 -54 -26 4 -29 1 -39 -40 -6 -25 -17 -56 -25 -70
l-13 -26 -13 30 c-19 42 -55 36 -59 -10 -2 -18 -7 -30 -13 -27 -5 3 -6 0 -3
-8 8 -23 -46 -68 -77 -64 -8 2 -20 7 -28 11 -9 6 -12 5 -8 -1 4 -6 0 -14 -9
-17 -20 -8 -77 33 -102 72 -9 15 -25 33 -34 40 -26 19 -22 30 19 49 42 21 50
35 29 56 -8 8 -12 18 -8 22 4 4 3 6 -3 4 -9 -2 -30 5 -85 28 -14 6 -22 8 -45
12 -5 1 -3 6 5 11 11 8 8 9 -13 4 -23 -5 -27 -3 -24 12 1 11 6 24 9 29 4 6 3
17 -1 24 -6 9 -11 10 -15 2 -4 -6 -1 -11 6 -11 8 -1 6 -6 -6 -15 -11 -8 -14
-15 -7 -15 7 0 10 -4 7 -9 -4 -5 -24 0 -45 12 -22 12 -37 25 -35 28 2 4 -2 9
-8 12 -10 3 -10 8 1 18 12 12 13 12 6 -1 -5 -8 -5 -12 0 -8 4 4 15 2 24 -5 14
-11 14 -10 2 6 -8 9 -12 19 -10 20 2 1 13 9 23 17 18 14 19 13 13 -3 -4 -11
-3 -16 4 -12 5 4 9 16 7 28 -2 14 2 21 10 19 8 -1 11 2 7 8 -3 6 -11 8 -16 4
-6 -3 -17 2 -25 12 -9 11 -12 12 -8 4 4 -8 -5 -4 -19 9 -15 13 -24 28 -21 32
3 5 -3 6 -12 2 -13 -5 -15 -3 -9 7 6 10 4 12 -8 7 -10 -3 -17 -2 -17 4 0 6 -4
8 -10 4 -5 -3 -32 6 -60 21 -32 17 -79 30 -130 36 -44 6 -80 15 -80 20 0 18
59 94 123 156 57 57 65 61 70 43 3 -12 13 -21 25 -21 18 0 181 55 190 65 3 3
14 5 24 5 17 0 16 -3 -8 -35z m86 0 c0 -2 -10 -9 -22 -15 -22 -11 -22 -10 -4
4 21 17 26 19 26 11z m-5722 -72 c17 -9 32 -21 32 -29 0 -11 -6 -10 -35 2 -19
7 -50 14 -69 14 -19 0 -38 5 -41 10 -9 15 -25 12 -25 -4 0 -7 -7 -19 -15 -26
-15 -13 -15 -13 -19 33 -2 28 110 28 172 0z m121 -37 c17 -36 31 -71 31 -79 0
-17 21 -69 57 -144 49 -102 233 -263 319 -279 24 -4 40 -16 54 -40 49 -78 166
-134 283 -134 61 0 66 -2 124 -47 33 -27 73 -58 89 -71 l29 -22 -34 17 c-18
10 -41 23 -50 28 -74 45 -113 66 -117 62 -13 -12 470 -387 500 -387 2 0 35
-17 73 -39 178 -101 411 -223 433 -227 30 -6 163 41 140 50 -8 3 -51 19 -95
35 -44 16 -121 48 -171 72 -91 44 -355 191 -350 196 1 1 62 -27 135 -63 73
-36 152 -72 175 -79 22 -8 90 -34 151 -59 60 -25 162 -60 227 -77 64 -18 115
-36 113 -39 -3 -4 -20 -10 -38 -13 -34 -5 -209 -78 -302 -125 -63 -33 -162
-102 -197 -139 -14 -15 -58 -77 -97 -136 -39 -59 -76 -105 -81 -102 -12 7 -93
165 -85 165 2 0 23 -26 47 -58 23 -31 44 -59 46 -62 2 -3 8 2 13 11 21 39 108
147 170 213 37 39 66 72 65 73 -1 1 -20 -3 -42 -9 -25 -7 -91 -9 -182 -5 -133
5 -148 8 -208 36 -36 17 -101 55 -145 86 -45 30 -83 55 -87 55 -3 0 32 -35 78
-78 136 -125 167 -155 139 -136 -15 11 -67 56 -116 100 -50 45 -110 93 -136
108 -44 26 -46 30 -53 84 -6 56 -18 82 -35 82 -5 0 -9 -7 -9 -15 0 -8 -12 -22
-27 -32 -16 -10 -34 -26 -41 -35 -7 -10 -20 -18 -28 -18 -8 0 -14 -2 -14 -5 0
-9 -51 -250 -61 -288 -8 -31 -13 -36 -24 -27 -7 6 -16 23 -20 38 -17 73 -110
236 -190 333 -7 10 -36 46 -64 82 -28 36 -58 68 -66 71 -23 8 -19 20 30 92 24
37 42 71 39 75 -8 14 -57 11 -104 -6 -52 -19 -60 -19 -60 -1 0 7 -12 21 -26
31 -24 15 -30 16 -74 1 -71 -23 -90 -10 -74 50 3 12 17 27 30 33 29 13 124
100 124 112 0 17 -76 8 -132 -15 -32 -13 -79 -38 -106 -55 -27 -17 -51 -31
-53 -31 -2 0 -4 26 -5 57 -2 95 -23 302 -41 391 l-16 83 29 30 c16 17 48 42
71 57 24 15 43 33 43 40 0 15 -32 16 -48 0 -6 -6 -13 -10 -16 -7 -7 8 19 199
28 199 2 0 18 -29 35 -64z m-324 24 c-3 -5 -1 -19 5 -30 9 -17 8 -20 -8 -20
-10 0 -23 5 -30 12 -9 9 -15 9 -23 1 -8 -8 -4 -15 12 -27 l23 -16 -29 -55
c-37 -69 -65 -75 -65 -14 0 48 32 107 74 137 32 23 51 29 41 12z m5508 -194
c50 -8 95 -20 105 -30 10 -8 32 -19 49 -22 18 -3 42 -17 55 -31 19 -20 20 -26
8 -34 -8 -5 -34 -7 -57 -4 -25 4 -44 2 -48 -5 -8 -12 22 -50 39 -50 6 0 27
-17 47 -38 38 -40 152 -101 208 -111 49 -9 49 -27 1 -35 -46 -7 -54 -31 -19
-62 12 -10 29 -35 39 -54 11 -19 54 -67 97 -107 100 -91 128 -143 120 -221 -3
-30 -11 -60 -18 -66 -9 -8 -10 -8 -4 3 5 9 4 12 -3 7 -6 -4 -9 -13 -6 -20 5
-14 -23 -43 -33 -32 -3 3 -1 6 5 6 16 0 6 80 -12 98 -18 18 -43 5 -55 -29 -7
-21 -14 -27 -28 -23 -15 5 -15 4 -3 -5 9 -6 18 -7 24 -1 6 6 14 10 20 10 5 0
-11 -20 -36 -45 -25 -24 -44 -46 -41 -48 2 -3 -3 -7 -11 -10 -9 -4 -18 -1 -22
5 -4 7 -3 8 4 4 8 -5 12 1 12 14 0 13 4 19 11 14 8 -5 8 -1 0 14 -6 12 -17 24
-24 29 -16 10 -55 15 -42 6 6 -5 11 -15 13 -23 2 -8 0 -12 -4 -8 -9 10 -35
-12 -28 -23 5 -8 -10 -13 -30 -10 -5 1 -16 -5 -25 -13 -11 -10 -34 -13 -74
-12 -53 3 -94 16 -51 16 10 0 28 7 38 15 20 15 41 11 30 -7 -4 -7 -2 -8 5 -4
8 5 9 12 3 19 -5 7 -8 22 -6 34 2 12 0 24 -5 27 -4 3 -7 -7 -5 -22 2 -26 2
-26 -12 -8 -8 11 -14 15 -14 9 0 -12 -81 -10 -120 2 -18 6 -20 9 -9 17 10 7 8
9 -8 5 -27 -6 -58 24 -42 40 7 7 2 19 -15 41 -28 33 -33 61 -13 81 10 11 9 13
-1 7 -14 -8 -32 31 -24 53 3 9 1 12 -6 7 -7 -4 -12 -1 -13 6 0 7 -4 3 -9 -9
-5 -13 -15 -23 -21 -23 -8 0 -7 -5 2 -17 13 -15 12 -15 -6 -5 -11 6 -27 19
-36 29 -23 26 -109 103 -117 104 -4 0 -16 3 -27 6 -11 3 -41 7 -67 8 -35 2
-45 0 -42 -10 3 -8 -4 -19 -16 -25 -16 -9 -20 -18 -16 -40 3 -20 -2 -34 -16
-46 -11 -11 -17 -26 -14 -37 4 -15 0 -18 -15 -14 -11 3 -16 1 -13 -5 10 -16
-92 -98 -122 -98 -33 0 -3 236 56 440 13 46 52 109 57 93 3 -7 13 -13 24 -13
13 0 27 17 45 53 32 63 98 133 179 191 87 63 80 61 208 42z m1565 -104 c6 -18
-15 -14 -22 4 -4 10 -1 14 6 12 6 -2 14 -10 16 -16z m-3992 -201 c87 -37 176
-86 169 -93 -3 -2 1 -5 8 -5 7 0 62 -24 122 -53 243 -117 334 -150 416 -150
l49 0 -21 -41 c-11 -23 -43 -107 -70 -186 -27 -80 -56 -158 -65 -175 l-16 -31
-126 6 c-70 4 -139 9 -154 13 -24 5 -29 2 -39 -22 -6 -16 -31 -69 -55 -119
-56 -116 -140 -303 -149 -335 -4 -14 -11 -27 -15 -30 -4 -3 -14 -18 -23 -35
l-15 -30 -12 30 c-58 141 -117 231 -192 290 -20 17 -37 38 -38 48 0 20 93 221
114 247 7 8 20 34 28 58 19 48 26 37 -77 105 -207 137 -194 121 -135 174 27
24 54 59 60 77 6 19 19 41 30 51 11 10 23 34 26 54 11 61 74 181 94 181 10 0
49 -13 86 -29z m3219 -180 c3 -5 2 -12 -3 -15 -5 -3 -9 1 -9 9 0 17 3 19 12 6z
m-5893 -86 c-18 -8 -35 -21 -38 -30 -6 -15 -24 -11 -24 6 0 11 57 38 80 38 8
0 0 -6 -18 -14z m-86 -91 c-7 -19 -22 -18 -30 2 -4 10 1 25 11 37 18 19 18 19
21 -3 2 -12 1 -28 -2 -36z m351 -110 c-3 -3 -12 -4 -19 -1 -8 3 -5 6 6 6 11 1
17 -2 13 -5z m3817 -9 c81 -21 157 -59 207 -103 l43 -38 -57 -33 c-31 -18 -62
-29 -68 -25 -8 5 -9 3 -4 -6 6 -10 4 -12 -8 -7 -10 3 -17 3 -17 -2 0 -5 -8
-11 -17 -14 -10 -2 -27 -8 -37 -13 -14 -5 -17 -4 -12 4 11 18 0 14 -15 -5 -12
-15 -12 -16 1 -8 13 8 13 6 2 -8 -13 -15 -17 -15 -55 4 -39 18 -36 13 10 -19
16 -12 16 -12 1 -8 -10 3 -18 1 -18 -5 0 -6 -5 -7 -10 -4 -6 4 -8 11 -5 16 4
5 1 9 -5 9 -7 0 -9 -8 -5 -20 6 -19 -7 -26 -37 -21 -5 0 -8 -4 -8 -9 0 -14
-28 -12 -32 2 -3 7 -7 5 -11 -6 -5 -12 -3 -15 6 -10 9 5 9 4 0 -6 -6 -7 -23
-12 -37 -12 -14 0 -26 -4 -26 -9 0 -5 -8 -9 -17 -9 -10 0 -32 -9 -49 -19 -20
-12 -35 -16 -41 -10 -12 12 -43 1 -43 -16 0 -7 -8 -15 -17 -18 -10 -3 -33 -10
-52 -16 l-33 -10 4 55 c4 50 3 55 -14 51 -10 -3 -18 -3 -18 1 0 3 27 33 60 68
33 34 60 67 60 72 0 6 -7 17 -15 26 -13 13 -12 17 12 34 16 11 60 34 98 52
109 51 141 90 74 90 -16 0 -29 5 -29 10 0 16 168 12 234 -5z m-3869 -16 c4
-13 0 -27 -11 -40 -15 -17 -20 -18 -31 -6 -11 11 -12 19 -2 40 15 32 35 35 44
6z m6294 -3 c24 -13 24 -14 4 -24 -15 -8 -25 -7 -42 4 -39 28 -7 45 38 20z
m-5719 -311 c0 -17 -11 -32 -35 -47 -19 -13 -36 -29 -37 -35 -2 -8 -8 -9 -17
-4 -22 14 -3 63 36 93 40 31 53 29 53 -7z m1455 -104 c5 -1 3 -7 -5 -15 -22
-21 -147 -10 -153 13 -3 14 5 15 72 9 42 -3 80 -7 86 -7z m-191 -6 c3 -10 -1
-15 -12 -15 -10 0 -61 -11 -115 -25 -89 -23 -192 -72 -242 -115 -13 -11 -28
-15 -45 -10 -22 5 -16 11 60 51 216 113 339 152 354 114z m-1352 -45 c-3 -18
-10 -30 -19 -30 -11 0 -14 6 -9 23 3 12 6 30 6 41 0 14 3 16 13 7 8 -6 12 -23
9 -41z m1640 24 c30 -16 30 -16 9 -31 -29 -19 -75 -5 -79 25 -4 27 24 30 70 6z
m3568 -18 c10 -13 10 -16 -3 -16 -29 0 -47 12 -47 31 0 16 4 18 18 10 10 -5
24 -17 32 -25z m-3425 -58 c44 -39 125 -149 125 -170 0 -20 -38 -6 -44 16 -9
35 -74 102 -138 139 -43 26 -54 37 -45 46 21 21 54 11 102 -31z m3514 -22 c22
-23 23 -26 6 -32 -13 -5 -25 2 -46 27 -46 57 -13 61 40 5z m-5316 5 c5 -22 -1
-33 -14 -25 -12 7 -12 44 0 44 5 0 11 -9 14 -19z m-5 -109 c3 -56 2 -58 -30
-41 -17 9 -19 17 -13 47 8 45 14 54 28 49 7 -2 13 -27 15 -55z m497 18 c10
-11 16 -20 13 -20 -3 0 -13 9 -23 20 -10 11 -16 20 -13 20 3 0 13 -9 23 -20z
m425 1 c0 -6 -5 -13 -10 -16 -15 -9 -43 3 -35 15 8 13 45 13 45 1z m1460 -10
c0 -7 -73 -31 -96 -31 -21 0 16 20 51 29 22 5 41 9 43 10 1 1 2 -3 2 -8z m100
-7 c0 -11 -5 -14 -16 -10 -9 3 -22 6 -30 6 -8 0 -14 5 -14 10 0 6 14 10 30 10
21 0 30 -5 30 -16z m100 -9 c54 -19 203 -113 220 -139 7 -11 8 -22 2 -28 -6
-6 -26 8 -54 35 -39 38 -157 106 -210 121 -18 5 -25 26 -9 26 5 0 28 -7 51
-15z m-1757 -83 c-54 -64 -75 -97 -82 -132 -5 -26 -8 -27 -28 -17 -21 12 -21
13 27 77 27 35 48 68 47 71 -1 4 11 23 27 44 25 31 31 34 39 20 7 -13 -1 -28
-30 -63z m-282 51 c13 -16 12 -17 -3 -4 -10 7 -18 15 -18 17 0 8 8 3 21 -13z
m1699 10 c0 -8 -100 -66 -100 -59 0 7 83 66 92 66 4 0 8 -3 8 -7z m-263 -218
c3 -44 3 -77 0 -74 -4 3 -20 59 -37 124 -25 94 -28 120 -18 126 19 12 48 -80
55 -176z m897 16 c16 -17 25 -34 21 -41 -5 -8 -19 1 -41 25 -38 42 -39 45 -21
45 7 0 26 -13 41 -29z m1321 13 c18 -14 13 -15 -62 -12 -58 2 -83 7 -83 16 0
18 120 16 145 -4z m130 -3 c38 -7 38 -7 13 -14 -29 -8 -85 1 -94 14 -6 11 26
11 81 0z m123 -20 c11 -7 11 -9 -2 -14 -16 -6 -66 7 -66 18 0 8 54 5 68 -4z
m110 -27 c32 -9 64 -22 72 -29 8 -7 29 -17 47 -23 30 -10 115 -62 101 -62 -3
0 -28 10 -55 21 -26 12 -90 36 -142 53 -52 17 -96 37 -99 44 -5 16 8 15 76 -4z
m252 -114 c0 -5 -4 -10 -10 -10 -5 0 -10 5 -10 10 0 6 5 10 10 10 6 0 10 -4
10 -10z m-1330 -230 c0 -17 -19 -20 -44 -9 -25 12 -33 29 -20 41 7 8 64 -21
64 -32z m80 -49 c31 -22 36 -30 24 -35 -24 -9 -91 35 -79 53 9 15 10 15 55
-18z m117 -90 c73 -59 178 -169 169 -178 -4 -5 -40 26 -79 69 -40 42 -93 88
-120 103 -26 15 -44 31 -41 36 9 15 20 10 71 -30z"/>
<path d="M2667 7893 c-15 -4 -13 -10 18 -44 19 -21 35 -46 35 -55 0 -8 5 -12
11 -9 6 4 8 14 4 23 -3 8 -1 18 4 21 10 7 -35 72 -47 70 -4 -1 -15 -3 -25 -6z"/>
<path d="M2670 7800 c0 -5 5 -10 11 -10 5 0 7 5 4 10 -3 6 -8 10 -11 10 -2 0
-4 -4 -4 -10z"/>
<path d="M2523 7765 c37 -35 60 -72 52 -85 -3 -5 -1 -10 4 -10 29 0 -10 81
-54 112 -25 19 -27 5 -2 -17z"/>
<path d="M2344 7705 c-16 -12 -16 -14 -3 -15 9 0 22 7 29 15 16 19 0 19 -26 0z"/>
<path d="M2410 7621 c0 -10 19 -25 25 -20 1 2 -3 10 -11 17 -8 7 -14 8 -14 3z"/>
<path d="M2270 7610 c0 -5 5 -10 11 -10 5 0 7 5 4 10 -3 6 -8 10 -11 10 -2 0
-4 -4 -4 -10z"/>
<path d="M5395 7300 c29 -30 28 -34 -12 -31 -31 3 -36 -14 -8 -27 25 -12 61
-69 50 -80 -3 -4 -9 -2 -13 3 -9 13 -49 35 -62 35 -6 0 4 -18 21 -40 18 -22
29 -43 26 -47 -4 -3 -7 -1 -7 6 0 7 -4 10 -9 7 -4 -3 -23 -1 -41 4 -30 9 -28
5 35 -56 37 -35 65 -67 62 -70 -3 -4 1 -13 10 -22 14 -14 17 -14 29 3 51 70
18 246 -60 317 -41 38 -57 36 -21 -2z"/>
<path d="M6187 6932 c-57 -62 -100 -249 -101 -435 -1 -133 -2 -138 -21 -131
-11 3 -40 8 -65 11 l-45 4 26 -23 c15 -13 42 -35 60 -50 l34 -26 -70 25 c-98
37 -230 39 -293 5 -49 -26 -50 -40 -1 -23 52 18 162 13 234 -10 36 -12 65 -26
65 -30 0 -5 6 -9 13 -9 7 0 29 -11 48 -25 20 -13 39 -21 43 -18 13 13 5 66
-15 94 -11 16 -18 29 -14 29 19 0 154 -73 175 -95 20 -22 22 -29 12 -43 -52
-72 -53 -76 -49 -137 5 -68 70 -228 164 -405 85 -163 149 -230 219 -230 39 0
135 33 188 64 54 32 194 137 229 173 15 15 33 27 38 25 6 -1 8 1 5 6 -2 4 8
16 23 27 27 18 41 39 76 117 10 23 28 41 48 49 35 15 101 18 130 6 17 -6 17
-8 1 -32 l-16 -25 38 0 c94 -1 274 -61 274 -92 0 -6 3 -8 7 -5 3 4 12 2 20 -4
10 -9 13 -8 13 4 0 43 -128 117 -232 132 -33 5 -45 11 -42 20 11 27 -36 37
-142 33 l-104 -4 0 32 c0 29 3 32 41 37 104 14 185 187 129 276 -20 31 -24 33
-61 28 -22 -3 -49 -13 -60 -23 -24 -22 -24 -20 7 57 46 113 84 180 131 230 51
54 63 58 100 29 61 -48 97 -6 40 46 -32 30 -39 32 -65 23 -46 -16 -98 -65
-147 -138 -58 -88 -99 -186 -136 -331 -16 -62 -31 -115 -32 -116 -1 -2 -23 11
-47 28 -82 55 -282 129 -348 127 -36 -1 -35 -1 23 -21 33 -12 62 -24 65 -27 3
-3 16 -8 30 -10 13 -1 33 -9 44 -17 11 -8 29 -14 39 -14 11 0 15 -4 11 -12 -4
-6 -3 -8 3 -5 6 4 25 0 42 -9 37 -19 41 -27 5 -14 -35 14 -42 12 -20 -5 17
-13 18 -15 3 -15 -9 0 -17 -5 -17 -11 0 -8 -8 -7 -22 3 -21 12 -25 11 -45 -9
-24 -25 -19 -32 7 -8 14 13 16 12 16 -4 0 -11 -6 -17 -13 -14 -9 4 -11 -1 -7
-13 4 -15 4 -16 -4 -5 -6 8 -17 11 -27 8 -10 -4 -14 -3 -9 4 4 8 -1 9 -15 4
-11 -3 -21 -3 -21 2 0 4 -23 9 -52 11 -28 2 -70 10 -92 17 -23 8 -44 15 -47
15 -4 0 -9 -23 -11 -52 -4 -42 -11 -56 -34 -74 -15 -13 -31 -21 -36 -18 -4 3
-8 0 -8 -5 0 -21 -69 -12 -91 12 -11 12 -32 34 -46 49 -20 20 -27 39 -31 82
-6 74 2 99 44 146 30 33 33 41 20 46 -9 3 -30 1 -48 -5 -45 -16 -55 0 -29 43
82 132 -26 360 -124 262 -29 -29 -45 -83 -46 -156 l-1 -55 -18 40 c-29 64 -41
158 -30 239 18 124 61 233 105 262 23 15 26 15 51 -5 30 -24 44 -20 44 14 0
52 -97 87 -133 47z m149 -567 c8 -34 -21 -95 -46 -95 -27 0 -43 41 -29 78 19
53 63 63 75 17z m902 -286 c4 -34 -32 -79 -64 -79 -20 0 -24 5 -24 29 0 65 81
111 88 50z"/>
<path d="M8137 6686 c15 -13 30 -22 32 -20 6 5 -39 44 -51 44 -5 0 4 -11 19
-24z"/>
<path d="M6912 6074 c10 -10 20 -15 24 -12 3 4 -5 12 -18 18 -22 12 -22 12 -6
-6z"/>
<path d="M5208 5945 c-42 -16 -88 -44 -88 -55 0 -4 19 -1 42 7 60 21 68 5 26
-54 -41 -57 -61 -104 -56 -130 3 -14 7 -12 21 13 16 31 71 84 86 84 5 0 13
-30 19 -67 7 -42 19 -74 32 -87 24 -24 24 -19 10 69 -10 61 -5 141 11 166 7
11 19 9 63 -14 30 -16 60 -26 65 -22 28 17 -1 65 -56 94 -29 15 -129 13 -175
-4z"/>
<path d="M7673 5410 c-53 -32 -41 -40 55 -37 74 2 94 -1 130 -20 48 -26 52
-27 52 -13 0 12 -55 72 -64 70 -4 0 -23 4 -44 10 -55 15 -93 12 -129 -10z"/>
<path d="M7730 5344 c0 -3 22 -26 49 -50 34 -31 56 -61 69 -96 17 -46 20 -49
27 -29 18 57 -27 140 -92 167 -35 15 -53 18 -53 8z"/>
<path d="M5620 5201 c0 -12 58 -41 110 -57 27 -8 50 -18 50 -21 0 -4 -15 -19
-32 -34 l-33 -28 36 -1 c27 0 45 8 68 29 17 16 31 36 31 44 0 23 -27 40 -54
33 -13 -3 -43 1 -67 10 -60 22 -109 33 -109 25z"/>
<path d="M7725 5170 c-15 -22 -32 -37 -38 -33 -5 3 -7 2 -4 -3 3 -5 -28 -34
-69 -64 -41 -30 -74 -58 -74 -63 0 -14 63 3 102 29 38 24 100 108 113 152 9
32 1 27 -30 -18z"/>
<path d="M6500 5018 c-72 -83 -215 -168 -283 -168 -15 0 -14 6 10 52 26 50 35
109 19 125 -4 4 -13 0 -20 -10 -7 -9 -18 -17 -25 -17 -6 0 -11 -8 -11 -19 0
-22 -76 -53 -183 -75 -38 -8 -72 -17 -75 -20 -14 -14 110 -4 176 14 39 11 74
20 77 20 12 0 4 -44 -15 -80 l-20 -40 28 0 c16 0 53 8 83 18 30 11 60 21 68
23 8 2 49 25 91 50 l77 46 22 -42 c47 -90 161 -195 211 -195 25 0 25 12 0 35
-25 22 -26 40 -2 30 77 -31 366 -67 385 -49 3 3 -6 24 -20 45 -14 22 -24 41
-22 42 2 2 41 10 86 19 91 18 193 60 220 90 17 20 17 20 -2 15 -86 -26 -153
-39 -235 -44 -78 -5 -102 -3 -127 11 -40 20 -43 20 -43 -1 0 -27 37 -95 70
-130 l31 -33 -58 0 c-74 0 -168 34 -269 94 -42 25 -78 46 -80 46 -12 0 -1 -71
15 -103 17 -34 17 -36 1 -27 -66 35 -138 203 -124 289 4 23 3 41 -2 41 -5 -1
-29 -24 -54 -52z"/>
<path d="M5955 5048 c-22 -5 -76 -7 -120 -4 -79 5 -80 5 -50 -12 22 -13 54
-17 123 -17 l94 0 -4 -37 c-3 -37 4 -49 17 -28 4 6 9 8 13 6 4 -2 9 20 10 50
4 61 0 63 -83 42z"/>
<path d="M5858 4774 c-3 -3 18 -28 46 -57 28 -29 63 -76 76 -104 26 -56 34
-62 47 -39 15 26 68 -8 123 -78 53 -68 82 -85 73 -43 -2 12 10 0 29 -30 19
-30 40 -51 50 -50 9 1 15 4 12 8 -4 7 47 49 60 49 3 0 6 -11 6 -25 0 -29 2
-30 39 -10 16 8 32 11 36 7 5 -4 5 -2 2 4 -7 12 80 57 94 49 5 -4 9 -1 9 5 0
8 19 11 60 8 33 -2 60 -1 60 4 0 14 -39 28 -79 28 -45 0 -49 5 -24 32 29 32 7
30 -43 -5 -27 -19 -64 -41 -82 -51 -29 -15 -32 -15 -32 -1 0 20 -25 14 -87
-20 l-42 -23 -36 44 c-22 26 -41 41 -50 38 -20 -8 -47 22 -85 93 l-32 62 -28
-29 c-16 -17 -33 -30 -39 -30 -5 0 -28 31 -50 69 -45 77 -92 116 -113 95z"/>
<path d="M6802 4653 c-8 -3 -34 -32 -58 -65 -42 -58 -55 -100 -34 -113 6 -3
10 1 10 10 0 24 39 76 51 69 6 -3 18 1 27 9 9 8 40 27 69 42 29 15 50 32 47
36 -9 15 -48 10 -82 -11 l-33 -20 11 21 c13 23 11 28 -8 22z"/>
<path d="M3029 4983 c-16 -42 -23 -102 -10 -83 6 8 11 22 11 31 0 9 13 31 29
48 l29 31 -24 0 c-17 0 -28 -8 -35 -27z"/>
<path d="M3461 4991 c-7 -5 -22 -6 -32 -4 -11 3 -19 0 -19 -6 0 -7 4 -10 9 -7
5 3 14 -1 21 -9 11 -14 15 -14 31 1 30 27 22 45 -10 25z"/>
<path d="M3343 4912 c-15 -16 -38 -34 -51 -41 -12 -6 -22 -16 -22 -20 0 -15
91 -6 101 9 9 15 13 80 5 80 -3 0 -17 -13 -33 -28z"/>
<path d="M3191 4789 c-14 -19 -28 -28 -37 -25 -9 3 -12 1 -9 -4 3 -6 -5 -10
-19 -10 -14 0 -26 -5 -26 -11 0 -6 39 -87 86 -180 99 -193 75 -178 240 -157
126 15 142 8 146 -64 3 -52 4 -53 38 -58 20 -4 41 -10 48 -14 19 -11 12 -66
-13 -100 -11 -17 -25 -44 -31 -60 -9 -26 -17 -32 -45 -34 -35 -3 -35 -4 -51
-73 l-17 -70 35 -97 c20 -53 40 -109 46 -124 5 -16 14 -28 19 -28 23 0 249
219 249 240 0 9 -41 135 -91 281 -50 145 -103 299 -117 342 -24 70 -42 98 -42
64 0 -8 -9 -22 -20 -32 -23 -21 -41 -11 -65 35 -11 21 -20 26 -38 23 l-23 -5
24 -49 c22 -43 23 -52 12 -79 -7 -16 -18 -30 -26 -30 -7 0 -17 -6 -21 -14 -4
-7 -23 -21 -41 -30 -39 -20 -45 -17 -104 57 -40 51 -48 90 -27 129 9 17 5 30
-30 80 -46 66 -48 74 -25 106 24 34 1 26 -25 -9z"/>
<path d="M2770 4798 c-19 -5 -45 -19 -57 -30 l-22 -21 36 -38 c35 -37 114 -81
169 -95 35 -9 34 -4 -35 169 -12 29 -30 33 -91 15z"/>
<path d="M3380 4658 c0 -8 12 -13 30 -13 37 0 34 19 -3 23 -17 2 -27 -1 -27
-10z"/>
<path d="M3389 4623 c-1 -5 -1 -12 0 -16 1 -5 -3 -6 -7 -3 -5 3 -17 -3 -27
-14 -22 -24 -33 -26 -31 -4 2 28 -34 25 -45 -2 -10 -28 1 -58 26 -68 8 -3 14
-9 13 -13 -3 -11 22 -56 36 -65 16 -11 38 -10 31 2 -3 6 1 10 10 10 19 0 47
25 38 34 -4 3 3 6 14 6 15 0 22 8 25 30 3 17 1 30 -3 30 -5 0 -5 7 -2 17 5 12
3 14 -7 8 -9 -5 -11 -4 -6 4 5 7 -1 20 -15 32 -22 19 -48 25 -50 12z m-47 -70
c-6 -2 -10 -8 -8 -12 3 -4 -1 -8 -9 -8 -11 0 -12 4 -4 14 6 7 17 13 23 12 7 0
6 -2 -2 -6z"/>
<path d="M3166 3821 c-3 -5 -41 -10 -84 -11 -110 -2 -153 -7 -182 -18 -18 -7
-35 -6 -60 3 -41 15 -90 27 -90 22 0 -5 54 -103 149 -269 83 -147 59 -136 243
-113 130 17 208 34 208 47 0 5 -30 85 -66 178 -60 151 -69 170 -90 170 -12 0
-25 -4 -28 -9z"/>
<path d="M3830 6290 c-9 -6 -10 -10 -3 -10 6 0 15 5 18 10 8 12 4 12 -15 0z"/>
<path d="M3784 6248 c0 -10 1 -18 3 -18 1 0 7 8 12 18 7 13 6 19 -2 19 -7 0
-13 -9 -13 -19z"/>
<path d="M3796 6222 c-27 -34 -27 -35 -4 -14 19 17 27 20 31 10 2 -7 4 -1 3
14 0 16 -1 28 -1 28 0 0 -13 -17 -29 -38z"/>
<path d="M3590 6241 c0 -6 5 -13 10 -16 6 -3 10 1 10 9 0 9 -4 16 -10 16 -5 0
-10 -4 -10 -9z"/>
<path d="M3573 6190 c6 -11 15 -20 19 -20 12 0 -3 28 -18 34 -11 4 -12 2 -1
-14z"/>
<path d="M3550 6170 c0 -11 5 -20 10 -20 6 0 10 9 10 20 0 11 -4 20 -10 20 -5
0 -10 -9 -10 -20z"/>
<path d="M3735 6150 c-3 -5 -1 -10 4 -10 6 0 11 5 11 10 0 6 -2 10 -4 10 -3 0
-8 -4 -11 -10z"/>
<path d="M3542 6119 c2 -6 8 -10 13 -10 5 0 11 4 13 10 2 6 -4 11 -13 11 -9 0
-15 -5 -13 -11z"/>
<path d="M3542 6076 c7 -16 14 -23 16 -17 2 6 8 9 13 5 5 -3 9 2 9 11 0 9 -5
13 -10 10 -6 -4 -18 -1 -26 6 -13 11 -14 9 -2 -15z"/>
<path d="M3623 6009 c-1 -10 2 -21 8 -24 5 -3 6 1 3 9 -3 9 -1 16 5 16 6 0 11
4 11 8 0 17 -26 8 -27 -9z"/>
<path d="M3580 5960 c0 -5 5 -10 11 -10 5 0 7 5 4 10 -3 6 -8 10 -11 10 -2 0
-4 -4 -4 -10z"/>
<path d="M4073 6407 c-45 -33 -113 -103 -113 -116 0 -6 7 -11 15 -11 8 0 15 4
15 8 0 4 34 33 75 63 41 29 73 59 71 64 -5 19 -31 16 -63 -8z"/>
<path d="M4155 6329 c-44 -24 -92 -61 -175 -138 -50 -46 -53 -50 -30 -50 27 0
56 18 141 88 30 24 78 55 107 68 43 20 51 27 41 39 -16 19 -38 18 -84 -7z"/>
<path d="M1150 5754 c0 -8 5 -12 10 -9 6 4 8 11 5 16 -9 14 -15 11 -15 -7z"/>
<path d="M1136 5725 c4 -8 11 -15 16 -15 6 0 5 6 -2 15 -7 8 -14 15 -16 15 -2
0 -1 -7 2 -15z"/>
<path d="M1250 5620 c0 -5 7 -10 16 -10 8 0 12 5 9 10 -3 6 -10 10 -16 10 -5
0 -9 -4 -9 -10z"/>
<path d="M1270 5570 c0 -11 5 -20 10 -20 6 0 10 9 10 20 0 11 -4 20 -10 20 -5
0 -10 -9 -10 -20z"/>
<path d="M1210 5559 c0 -11 27 -12 34 -1 2 4 -4 9 -15 9 -10 1 -19 -2 -19 -8z"/>
<path d="M1301 5554 c0 -11 3 -14 6 -6 3 7 2 16 -1 19 -3 4 -6 -2 -5 -13z"/>
<path d="M476 5538 c3 -5 10 -6 15 -3 13 9 11 12 -6 12 -8 0 -12 -4 -9 -9z"/>
<path d="M518 5533 c7 -3 16 -2 19 1 4 3 -2 6 -13 5 -11 0 -14 -3 -6 -6z"/>
<path d="M560 5530 c-9 -6 -10 -10 -3 -10 6 0 15 5 18 10 8 12 4 12 -15 0z"/>
<path d="M1321 5474 c0 -11 3 -14 6 -6 3 7 2 16 -1 19 -3 4 -6 -2 -5 -13z"/>
<path d="M968 5354 c17 -11 26 -12 39 -4 16 10 15 10 -4 5 -12 -3 -24 -1 -28
5 -3 5 -11 10 -18 10 -6 0 -1 -7 11 -16z"/>
<path d="M1801 5264 c0 -11 3 -14 6 -6 3 7 2 16 -1 19 -3 4 -6 -2 -5 -13z"/>
<path d="M1855 5170 c3 -5 8 -10 11 -10 2 0 4 5 4 10 0 6 -5 10 -11 10 -5 0
-7 -4 -4 -10z"/>
<path d="M2017 4956 c-4 -10 -5 -21 -2 -24 9 -9 17 6 13 25 -3 17 -4 17 -11
-1z"/>
<path d="M1886 4906 c3 -9 11 -16 16 -16 13 0 5 23 -10 28 -7 2 -10 -2 -6 -12z"/>
<path d="M2010 4911 c0 -6 4 -13 10 -16 6 -3 7 1 4 9 -7 18 -14 21 -14 7z"/>
<path d="M1856 4688 c3 -4 0 -8 -6 -8 -6 0 -8 -4 -5 -10 3 -5 11 -10 17 -10 6
0 8 3 5 7 -4 3 0 11 9 17 13 10 13 12 -5 12 -11 0 -17 -4 -15 -8z"/>
<path d="M1701 4406 c-9 -11 -9 -16 1 -22 7 -4 10 -4 6 1 -4 4 -3 14 3 22 6 7
9 13 6 13 -2 0 -10 -6 -16 -14z"/>
<path d="M1575 4380 c-3 -5 -1 -10 4 -10 6 0 11 5 11 10 0 6 -2 10 -4 10 -3 0
-8 -4 -11 -10z"/>
<path d="M1279 4343 c-1 -5 -1 -11 0 -15 2 -12 -17 -10 -24 2 -3 6 -11 10 -18
10 -6 0 -1 -7 11 -16 13 -9 26 -13 30 -10 7 8 12 36 6 36 -2 0 -5 -3 -5 -7z"/>
<path d="M1540 4281 c0 -6 4 -13 10 -16 6 -3 7 1 4 9 -7 18 -14 21 -14 7z"/>
<path d="M1356 4263 c-11 -12 6 -24 19 -13 9 7 16 6 26 -7 12 -15 12 -16 -4
-10 -11 4 -16 3 -12 -4 4 -6 13 -8 20 -5 7 2 16 -2 19 -10 3 -8 10 -14 16 -14
11 0 -1 18 -32 48 -18 17 -43 24 -52 15z"/>
<path d="M8470 5493 c0 -3 11 -14 25 -25 14 -11 48 -67 76 -124 30 -61 57
-104 66 -104 15 0 132 55 146 69 17 16 -123 106 -255 165 -32 13 -58 22 -58
19z"/>
<path d="M2132 5008 c6 -18 54 -51 68 -46 6 2 -7 16 -30 31 -23 15 -40 22 -38
15z"/>
<path d="M2965 5069 c-11 -17 1 -21 15 -4 8 9 8 15 2 15 -6 0 -14 -5 -17 -11z"/>
<path d="M2368 4603 c7 -3 16 -2 19 1 4 3 -2 6 -13 5 -11 0 -14 -3 -6 -6z"/>
<path d="M2435 4590 c3 -5 11 -10 16 -10 6 0 7 5 4 10 -3 6 -11 10 -16 10 -6
0 -7 -4 -4 -10z"/>
<path d="M2511 4254 c0 -11 3 -14 6 -6 3 7 2 16 -1 19 -3 4 -6 -2 -5 -13z"/>
<path d="M2426 4178 c3 -5 10 -6 15 -3 13 9 11 12 -6 12 -8 0 -12 -4 -9 -9z"/>
<path d="M2078 3653 c7 -3 16 -2 19 1 4 3 -2 6 -13 5 -11 0 -14 -3 -6 -6z"/>
<path d="M1660 3615 c-9 -11 -10 -19 -3 -26 8 -8 13 -7 18 2 6 8 4 10 -5 4 -8
-5 -11 -3 -8 6 3 8 11 13 17 11 7 -1 10 2 6 8 -8 13 -10 13 -25 -5z"/>
<path d="M1693 3530 c-1 -10 7 -26 17 -35 11 -10 17 -21 15 -25 -2 -4 5 -16
17 -26 12 -11 18 -14 15 -7 -4 6 -4 13 0 16 5 2 3 3 -4 1 -20 -5 -24 9 -7 27
11 12 13 23 6 34 -8 16 -9 16 -15 1 -4 -10 -3 -15 3 -11 6 3 10 2 10 -4 0 -5
-4 -12 -8 -15 -11 -7 -44 32 -37 44 3 5 2 11 -3 14 -4 2 -8 -4 -9 -14z"/>
<path d="M2018 3343 c7 -3 16 -2 19 1 4 3 -2 6 -13 5 -11 0 -14 -3 -6 -6z"/>
<path d="M2068 3333 c7 -3 16 -2 19 1 4 3 -2 6 -13 5 -11 0 -14 -3 -6 -6z"/>
<path d="M2590 3245 c5 -7 6 -16 2 -21 -4 -5 -3 -5 2 -1 15 12 15 34 0 34 -9
0 -11 -4 -4 -12z"/>
<path d="M3305 4215 c22 -19 45 -35 50 -34 6 0 -8 15 -30 34 -22 19 -44 35
-50 34 -5 0 8 -15 30 -34z"/>
<path d="M7940 3511 c0 -11 -10 -44 -21 -75 -20 -53 -21 -86 0 -86 5 0 16 18
25 40 18 45 22 140 6 140 -5 0 -10 -9 -10 -19z"/>
<path d="M8794 3022 c7 -47 -9 -207 -26 -262 -6 -19 -29 -52 -51 -73 -22 -20
-38 -39 -36 -41 5 -4 142 -80 152 -84 4 -2 7 59 7 136 0 132 1 141 20 147 26
8 26 16 -15 114 -42 103 -60 125 -51 63z"/>
<path d="M8612 2213 c-16 -55 -91 -154 -138 -183 -33 -21 -36 -25 -20 -34 10
-6 43 -30 74 -53 32 -23 62 -43 67 -43 6 0 9 20 7 47 -2 27 5 89 15 138 10 51
16 107 13 130 l-6 40 -12 -42z"/>
<path d="M6854 1868 c-282 -203 -386 -268 -584 -364 -138 -67 -397 -170 -537
-214 -102 -32 -129 -50 -75 -50 38 1 93 13 197 45 99 30 261 74 400 109 114
30 273 101 384 173 84 55 103 67 209 133 29 18 81 53 115 79 35 25 72 53 84
61 11 8 23 27 27 41 5 22 -1 30 -37 57 l-43 31 -140 -101z"/>
<path d="M8163 1552 c-10 -17 -112 -73 -157 -87 -16 -5 -13 -10 20 -34 22 -15
50 -40 63 -55 14 -14 28 -26 31 -26 14 0 52 107 65 183 6 40 -3 48 -22 19z"/>
<path d="M7565 1206 c-41 -40 -87 -83 -104 -95 -34 -25 -127 -46 -243 -56 -43
-4 -80 -10 -83 -15 -2 -4 19 -10 48 -14 89 -11 256 -47 314 -67 57 -19 72 -16
73 16 0 6 20 75 45 155 25 80 45 146 45 147 0 16 -35 -10 -95 -71z"/>
<path d="M6690 817 c-30 -62 -85 -99 -219 -147 -47 -17 -94 -34 -104 -38 -15
-6 -7 -15 45 -52 79 -55 162 -133 189 -177 11 -18 24 -33 28 -33 27 0 68 179
82 353 6 76 9 140 7 142 -2 2 -15 -20 -28 -48z"/>
<path d="M8196 3163 c-6 -14 -5 -15 5 -6 7 7 10 15 7 18 -3 3 -9 -2 -12 -12z"/>
<path d="M7691 3001 c-8 -6 -10 -14 -5 -22 6 -11 5 -12 -7 -2 -13 10 -16 10
-16 0 0 -7 9 -14 20 -14 12 -1 17 3 13 12 -2 7 0 16 7 18 7 2 10 7 7 10 -3 3
-12 2 -19 -2z"/>
<path d="M7688 2863 c7 -3 16 -2 19 1 4 3 -2 6 -13 5 -11 0 -14 -3 -6 -6z"/>
<path d="M7998 2803 c7 -3 16 -2 19 1 4 3 -2 6 -13 5 -11 0 -14 -3 -6 -6z"/>
<path d="M7806 2777 c3 -10 9 -15 12 -12 3 3 0 11 -7 18 -10 9 -11 8 -5 -6z"/>
<path d="M3276 3165 c-25 -19 -16 -19 20 0 16 8 22 15 14 15 -8 -1 -24 -7 -34
-15z"/>
<path d="M3159 3133 c-13 -16 -12 -17 4 -4 16 13 21 21 13 21 -2 0 -10 -8 -17
-17z"/>
<path d="M3303 3135 c0 -8 4 -12 9 -9 5 3 6 10 3 15 -9 13 -12 11 -12 -6z"/>
<path d="M3179 3113 c-13 -16 -12 -17 4 -4 16 13 21 21 13 21 -2 0 -10 -8 -17
-17z"/>
<path d="M3118 3098 c5 -5 16 -8 23 -6 8 3 3 7 -10 11 -17 4 -21 3 -13 -5z"/>
<path d="M2475 3040 c-3 -6 1 -7 9 -4 18 7 21 14 7 14 -6 0 -13 -4 -16 -10z"/>
<path d="M3105 3040 c-3 -5 1 -10 9 -10 9 0 16 5 16 10 0 6 -4 10 -9 10 -6 0
-13 -4 -16 -10z"/>
<path d="M7460 2430 c0 -5 5 -10 11 -10 5 0 7 5 4 10 -3 6 -8 10 -11 10 -2 0
-4 -4 -4 -10z"/>
<path d="M7595 2411 c4 -8 2 -17 -6 -22 -9 -6 -10 -9 -2 -9 19 0 27 21 13 33
-10 9 -11 9 -5 -2z"/>
<path d="M7558 2403 c7 -3 16 -2 19 1 4 3 -2 6 -13 5 -11 0 -14 -3 -6 -6z"/>
<path d="M7770 2360 c0 -5 5 -10 11 -10 5 0 7 5 4 10 -3 6 -8 10 -11 10 -2 0
-4 -4 -4 -10z"/>
<path d="M8011 2316 c-9 -11 -9 -16 1 -22 7 -4 10 -4 6 1 -4 4 -3 14 3 22 6 7
9 13 6 13 -2 0 -10 -6 -16 -14z"/>
<path d="M7670 2231 c0 -6 4 -13 10 -16 6 -3 7 1 4 9 -7 18 -14 21 -14 7z"/>
<path d="M7859 2188 c-5 -13 -3 -68 3 -68 4 0 6 16 5 35 -2 31 -4 41 -8 33z"/>
<path d="M7705 2140 c3 -5 11 -10 16 -10 6 0 7 5 4 10 -3 6 -11 10 -16 10 -6
0 -7 -4 -4 -10z"/>
<path d="M7747 2116 c-3 -8 0 -17 7 -19 10 -4 12 1 9 14 -6 23 -9 24 -16 5z"/>
<path d="M1921 2280 c1 -36 4 -104 8 -153 l6 -87 48 34 c27 19 71 40 98 47 27
7 49 16 49 20 0 3 -16 9 -35 12 -69 11 -155 93 -155 149 0 7 -5 20 -10 28 -7
10 -9 -5 -9 -50z"/>
<path d="M2368 1795 c-16 -18 -28 -38 -28 -45 0 -7 22 -38 48 -69 99 -115 164
-208 218 -314 31 -60 58 -107 60 -104 2 2 17 64 33 138 29 131 31 135 71 169
l41 35 -59 1 c-124 3 -204 44 -283 145 -35 43 -65 79 -68 78 -3 0 -18 -15 -33
-34z"/>
<path d="M6985 2099 c-3 -4 2 -6 10 -5 21 3 28 13 10 13 -9 0 -18 -4 -20 -8z"/>
<path d="M7024 2088 c-10 -12 -14 -18 -7 -15 6 4 13 4 16 0 2 -5 3 -3 1 3 -1
6 3 17 9 23 6 6 9 11 6 11 -3 0 -14 -10 -25 -22z"/>
<path d="M7189 2028 c-5 -10 -7 -59 -3 -55 6 6 13 57 8 57 -2 0 -5 -1 -5 -2z"/>
<path d="M6755 2000 c-3 -5 -1 -10 4 -10 6 0 11 5 11 10 0 6 -2 10 -4 10 -3 0
-8 -4 -11 -10z"/>
<path d="M7562 1868 c6 -18 28 -21 28 -4 0 9 -7 16 -16 16 -9 0 -14 -5 -12
-12z"/>
<path d="M7370 1765 c-7 -8 -9 -15 -6 -15 4 0 14 7 22 15 9 8 11 15 6 15 -5 0
-15 -7 -22 -15z"/>
<path d="M7328 1763 c7 -3 16 -2 19 1 4 3 -2 6 -13 5 -11 0 -14 -3 -6 -6z"/>
<path d="M7537 1756 c-3 -8 -2 -18 3 -21 13 -8 20 9 11 24 -6 10 -10 9 -14 -3z"/>
<path d="M7649 1751 c8 -5 10 -14 5 -22 -6 -11 -4 -11 10 0 13 11 14 16 4 22
-7 5 -17 9 -23 9 -5 0 -4 -4 4 -9z"/>
<path d="M6127 1619 c7 -7 15 -10 18 -7 3 3 -2 9 -12 12 -14 6 -15 5 -6 -5z"/>
<path d="M5990 1610 c0 -5 5 -10 10 -10 6 0 10 5 10 10 0 6 -4 10 -10 10 -5 0
-10 -4 -10 -10z"/>
<path d="M5937 1528 c2 -5 10 -8 18 -8 8 0 16 3 18 8 3 4 -5 7 -18 7 -13 0
-21 -3 -18 -7z"/>
<path d="M5855 1500 c-3 -6 1 -7 9 -4 18 7 21 14 7 14 -6 0 -13 -4 -16 -10z"/>
<path d="M5889 1493 c-13 -17 -13 -17 6 -3 11 8 22 16 24 17 2 2 0 3 -6 3 -6
0 -17 -8 -24 -17z"/>
<path d="M4145 1330 c-4 -6 -3 -15 0 -20 4 -6 12 -32 18 -57 16 -64 37 -68 37
-8 0 25 -4 54 -10 64 -11 22 -37 34 -45 21z"/>
<path d="M4310 1300 c0 -6 9 -28 20 -50 11 -22 27 -67 34 -101 18 -75 23 -81
31 -35 9 43 -8 118 -37 164 -19 30 -48 44 -48 22z"/>
<path d="M5055 1088 c-63 -34 -142 -144 -165 -230 -22 -81 -5 -76 38 13 39 81
73 122 155 186 15 11 27 26 27 32 0 14 -29 14 -55 -1z"/>
<path d="M5406 984 c-9 -24 -7 -54 3 -54 6 0 17 10 25 22 11 16 13 25 4 35
-14 17 -25 16 -32 -3z"/>
<path d="M4393 915 c-54 -23 -79 -100 -52 -158 12 -26 75 -67 104 -67 32 0 86
33 100 61 31 58 14 128 -37 159 -38 23 -70 25 -115 5z m111 -37 c36 -31 42
-75 17 -115 -22 -36 -76 -53 -108 -34 -10 6 -12 11 -5 11 7 0 12 13 12 30 0
35 21 32 38 -6 7 -13 18 -24 27 -24 18 0 20 21 4 37 -8 8 -9 20 -1 41 13 39
-9 62 -61 62 l-36 0 -3 -72 -3 -73 -18 38 c-15 33 -16 41 -3 71 8 19 22 39 33
45 31 18 80 13 107 -11z m-44 -43 c0 -8 -9 -15 -20 -15 -11 0 -20 7 -20 15 0
8 9 15 20 15 11 0 20 -7 20 -15z"/>
<path d="M4407 23 c-12 -11 -8 -23 8 -23 8 0 15 7 15 15 0 16 -12 20 -23 8z"/>
</g>
</svg>
